<svg width="665" height="77" viewBox="0 0 665 77" fill="none" xmlns="http://www.w3.org/2000/svg">
<g clip-path="url(#clip0_1_12)">
<mask id="mask0_1_12" style="mask-type:luminance" maskUnits="userSpaceOnUse" x="0" y="0" width="665" height="77">
<path d="M665 0H0V77H665V0Z" fill="white"/>
</mask>
<g mask="url(#mask0_1_12)">
<path d="M42.1875 47.9688C42.3125 48.1562 42.2812 48.7812 42.0938 49.8438C41.9688 50.9062 41.75 52.0625 41.4375 53.3125C41.1875 54.5625 40.9062 55.75 40.5938 56.875C40.3438 57.9375 40.125 58.5625 39.9375 58.75H39C38.8125 58.75 38.625 58.7188 38.4375 58.6562C38.75 61.6562 39 64.0625 39.1875 65.875C39.375 67.6875 39.4688 68.6875 39.4688 68.875C39.4688 69.3125 39.25 69.9375 38.8125 70.75C38.4375 71.5625 38 72.3125 37.5 73C37 73.6875 36.4688 74.2188 35.9062 74.5938C35.4062 75.0312 35.0625 75.0625 34.875 74.6875C34.5625 74.125 33.9062 72.4375 32.9062 69.625C31.9062 66.8125 30.7812 62.9688 29.5312 58.0938C28.2812 57.9688 26.9688 57.8438 25.5938 57.7188C24.2812 57.5938 22.9375 57.4688 21.5625 57.3438C20.1875 57.2188 18.8125 57.0625 17.4375 56.875C16.125 56.625 14.8438 56.4062 13.5938 56.2188C12.9688 58.9688 12.3438 61.5625 11.7188 64C11.1562 66.4375 10.5938 68.5625 10.0312 70.375C9.53125 72.1875 9.09375 73.625 8.71875 74.6875C8.34375 75.75 8.0625 76.2812 7.875 76.2812C7.375 76.2812 6.875 75.9688 6.375 75.3438C5.875 74.7188 5.40625 73.9688 4.96875 73.0938C4.59375 72.2188 4.28125 71.3125 4.03125 70.375C3.78125 69.4375 3.65625 68.6562 3.65625 68.0312C3.78125 66.5938 3.9375 65.0938 4.125 63.5312C4.375 61.9688 4.5625 60.5312 4.6875 59.2188C4.875 57.6562 5.0625 56.125 5.25 54.625H4.875C4.625 54.5 4.28125 54.2188 3.84375 53.7812C3.40625 53.3438 2.96875 52.9062 2.53125 52.4688C2.09375 51.9688 1.71875 51.5 1.40625 51.0625C1.09375 50.5625 0.9375 50.1875 0.9375 49.9375C0.9375 49.8125 1.375 49.6875 2.25 49.5625C3.1875 49.4375 4.40625 49.3125 5.90625 49.1875C6.40625 45.4375 6.9375 41.5312 7.5 37.4688C8.0625 33.4062 8.625 29.5938 9.1875 26.0312C9.75 22.4688 10.2812 19.375 10.7812 16.75C11.3438 14.0625 11.8125 12.2188 12.1875 11.2188C12.8125 9.53125 13.9062 8.03125 15.4688 6.71875C17.0312 5.34375 18.6562 4.21875 20.3438 3.34375C22.0938 2.40625 23.75 1.6875 25.3125 1.1875C26.875 0.6875 28.0312 0.4375 28.7812 0.4375C29.0938 0.4375 29.4375 1.15625 29.8125 2.59375C30.25 3.96875 30.6875 5.84375 31.125 8.21875C31.625 10.5938 32.125 13.375 32.625 16.5625C33.1875 19.6875 33.7188 23 34.2188 26.5C34.7188 30 35.1875 33.5938 35.625 37.2812C36.125 40.9062 36.5938 44.375 37.0312 47.6875C40.1562 47.6875 41.875 47.7812 42.1875 47.9688ZM15.375 48.5312C17.375 48.4062 19.375 48.3125 21.375 48.25C23.375 48.1875 25.3438 48.0938 27.2812 47.9688C26.7812 45.5312 26.2188 42.8125 25.5938 39.8125C25.0938 37.25 24.5 34.25 23.8125 30.8125C23.125 27.375 22.4375 23.5938 21.75 19.4688C21 23.1562 20.25 26.75 19.5 30.25C18.75 33.6875 18.0625 36.7812 17.4375 39.5312C16.75 42.7188 16.0625 45.7188 15.375 48.5312ZM64.0312 11.4062C63.9062 11.2188 63.6875 11.0312 63.375 10.8438C63.125 10.6562 62.8125 10.5 62.4375 10.375C62.0625 10.25 61.6875 10.2188 61.3125 10.2812C61 10.2812 60.75 10.4063 60.5625 10.6562C60.375 10.9688 60.0312 12.1562 59.5312 14.2188C59.0938 16.2188 58.625 18.7188 58.125 21.7188C57.625 24.7188 57.1875 28.0625 56.8125 31.75C56.4375 35.4375 56.25 39.0938 56.25 42.7188C56.25 45.3438 56.3438 48.0938 56.5312 50.9688C56.7188 53.7812 56.9375 56.375 57.1875 58.75C57.5 61.125 57.8438 63.0938 58.2188 64.6562C58.6562 66.1562 59.0938 66.9062 59.5312 66.9062C59.9688 66.9688 60.5625 66.5 61.3125 65.5C62.0625 64.5 62.7812 63.375 63.4688 62.125C64.1562 60.8125 64.7812 59.5625 65.3438 58.375C65.9688 57.125 66.375 56.2812 66.5625 55.8438C66.8125 55.1562 67.1562 54.4062 67.5938 53.5938C68.0312 52.7188 68.4688 51.9375 68.9062 51.25C69.3438 50.5 69.7812 49.9062 70.2188 49.4688C70.6562 48.9688 71.0312 48.7188 71.3438 48.7188C71.7188 48.7188 72.0312 49.0938 72.2812 49.8438C72.5938 50.5938 72.8125 51.5 72.9375 52.5625C73.125 53.5625 73.25 54.625 73.3125 55.75C73.375 56.8125 73.4062 57.6875 73.4062 58.375C73.4062 59.625 73.1562 61.1875 72.6562 63.0625C72.2188 64.9375 71.625 66.75 70.875 68.5C70.1875 70.25 69.4062 71.75 68.5312 73C67.7188 74.25 66.9375 74.8438 66.1875 74.7812C65.4375 74.7188 64.2188 74.2812 62.5312 73.4688C60.9062 72.6562 59.2188 71.7188 57.4688 70.6562C55.7188 69.5938 54.125 68.5312 52.6875 67.4688C51.25 66.4062 50.4062 65.5625 50.1562 64.9375C49.8438 64.375 49.375 63.0312 48.75 60.9062C48.1875 58.7188 47.5938 56.0938 46.9688 53.0312C46.3438 49.9688 45.7812 46.5938 45.2812 42.9062C44.8438 39.2188 44.625 35.5 44.625 31.75C44.625 28 44.6562 24.3125 44.7188 20.6875C44.7812 17 44.9062 13.7188 45.0938 10.8438C45.3438 7.96875 45.7188 5.65625 46.2188 3.90625C46.7188 2.09375 47.4062 1.125 48.2812 1C50.0312 0.8125 51.9375 0.9375 54 1.375C56.0625 1.75 58.125 2.34375 60.1875 3.15625C62.25 3.96875 64.2188 4.90625 66.0938 5.96875C68.0312 6.96875 69.75 8.03125 71.25 9.15625C72.75 10.2188 73.9375 11.25 74.8125 12.25C75.75 13.25 76.25 14.0938 76.3125 14.7812C76.375 15.8438 76.25 17.0312 75.9375 18.3438C75.625 19.6562 75.25 20.9375 74.8125 22.1875C74.375 23.375 73.9062 24.4688 73.4062 25.4688C72.9688 26.4062 72.625 27.0625 72.375 27.4375C72.0625 27.875 71.6875 28.3438 71.25 28.8438C70.8125 29.3438 70.3438 29.7812 69.8438 30.1562C69.4062 30.5312 68.9375 30.8125 68.4375 31C68 31.125 67.5938 31.0312 67.2188 30.7188C66.9688 30.5312 66.7188 29.9375 66.4688 28.9375C66.2812 27.9375 66.0625 26.75 65.8125 25.375C65.625 24 65.4375 22.5312 65.25 20.9688C65.0625 19.3438 64.875 17.8438 64.6875 16.4688C64.5625 15.0938 64.4375 13.9375 64.3125 13C64.1875 12.0625 64.0938 11.5313 64.0312 11.4062ZM116.719 46.8438C116.844 47.0938 116.844 47.7812 116.719 48.9062C116.594 49.9688 116.375 51.125 116.062 52.375C115.812 53.625 115.531 54.8125 115.219 55.9375C114.969 57 114.781 57.625 114.656 57.8125C114.344 57.8125 114 57.8125 113.625 57.8125C113.312 57.75 113 57.7188 112.688 57.7188C112.375 57.7188 112.031 57.6875 111.656 57.625C111.469 60.25 111.25 62.7188 111 65.0312C110.75 67.2812 110.5 69.2188 110.25 70.8438C110 72.4688 109.781 73.75 109.594 74.6875C109.406 75.6875 109.219 76.1875 109.031 76.1875C108.531 76.3125 107.969 76.0938 107.344 75.5312C106.781 75.0312 106.219 74.4062 105.656 73.6562C105.094 72.9062 104.594 72.125 104.156 71.3125C103.719 70.4375 103.469 69.6875 103.406 69.0625C103.344 67.8125 103.281 66.5 103.219 65.125C103.219 63.6875 103.188 62.375 103.125 61.1875C103.062 59.8125 103.031 58.4375 103.031 57.0625C101.844 56.9375 100.688 56.8438 99.5625 56.7812C98.4375 56.6562 97.3125 56.5312 96.1875 56.4062C95.625 56.2812 95.0625 56.2188 94.5 56.2188C93.9375 56.1562 93.4062 56.0625 92.9062 55.9375C92.7812 58.8125 92.6562 61.4688 92.5312 63.9062C92.4062 66.3438 92.25 68.4688 92.0625 70.2812C91.9375 72.0938 91.7812 73.5 91.5938 74.5C91.4688 75.5625 91.3125 76.125 91.125 76.1875C90.625 76.25 90.0312 76.0312 89.3438 75.5312C88.6562 75.0312 88 74.4062 87.375 73.6562C86.8125 72.9062 86.2812 72.125 85.7812 71.3125C85.3438 70.5 85.0938 69.7812 85.0312 69.1562C84.9062 67.5312 84.7812 65.875 84.6562 64.1875C84.5312 62.4375 84.4062 60.8438 84.2812 59.4062C84.1562 57.7188 84.0312 56.0625 83.9062 54.4375C83.4062 54.375 82.9062 54.2812 82.4062 54.1562C81.9688 54.0312 81.5 53.9375 81 53.875C80.5625 53.8125 80.1562 53.7188 79.7812 53.5938C79.5312 53.4688 79.1875 53.2188 78.75 52.8438C78.3125 52.4062 77.875 51.9375 77.4375 51.4375C77 50.9375 76.625 50.4688 76.3125 50.0312C76 49.5312 75.8438 49.1562 75.8438 48.9062C75.8438 48.7812 76.5312 48.625 77.9062 48.4375C79.3438 48.25 81.2188 48.0938 83.5312 47.9688C83.2812 44.3438 83.0312 40.6562 82.7812 36.9062C82.5938 33.0938 82.4375 29.5625 82.3125 26.3125C82.1875 23 82.125 20.125 82.125 17.6875C82.125 15.1875 82.2188 13.4688 82.4062 12.5312C82.6562 11.2188 83.25 9.96875 84.1875 8.78125C85.1875 7.53125 86.25 6.4375 87.375 5.5C88.5 4.5625 89.5625 3.84375 90.5625 3.34375C91.5625 2.84375 92.2188 2.6875 92.5312 2.875C92.7188 3.0625 92.875 3.8125 93 5.125C93.1875 6.4375 93.3125 8.1875 93.375 10.375C93.5 12.5625 93.5625 15.0938 93.5625 17.9688C93.5625 20.8438 93.5625 23.9062 93.5625 27.1562C93.5625 30.3438 93.5 33.6875 93.375 37.1875C93.3125 40.625 93.25 44.0312 93.1875 47.4062C94.8125 47.2812 96.4062 47.1875 97.9688 47.125C99.5938 47.0625 101.188 46.9688 102.75 46.8438C102.688 43.2812 102.625 39.6562 102.562 35.9688C102.562 32.2812 102.562 28.8438 102.562 25.6562C102.562 22.4688 102.625 19.6875 102.75 17.3125C102.875 14.9375 103.031 13.2812 103.219 12.3438C103.531 11.0312 104.188 9.78125 105.188 8.59375C106.25 7.40625 107.344 6.375 108.469 5.5C109.656 4.5625 110.75 3.875 111.75 3.4375C112.812 3 113.5 2.90625 113.812 3.15625C114.125 3.34375 114.312 4.8125 114.375 7.5625C114.438 10.25 114.375 13.6562 114.188 17.7812C114.062 21.9062 113.844 26.5312 113.531 31.6562C113.281 36.7188 112.969 41.7188 112.594 46.6562C115.094 46.6562 116.469 46.7188 116.719 46.8438ZM145.875 14.6875C144.812 14.75 143.75 14.7812 142.688 14.7812C141.688 14.7188 140.75 14.6875 139.875 14.6875C138.875 14.6875 137.938 14.6562 137.062 14.5938C137.188 17.9062 137.219 21.7812 137.156 26.2188C137.156 30.5938 137.094 35.0938 136.969 39.7188C136.906 44.3438 136.781 48.875 136.594 53.3125C136.469 57.6875 136.312 61.5625 136.125 64.9375C138.5 64.875 140.594 64.875 142.406 64.9375C144.219 65 145.188 65.0938 145.312 65.2188C145.438 65.4062 145.438 66.0312 145.312 67.0938C145.188 68.0938 145 69.2188 144.75 70.4688C144.5 71.6562 144.25 72.75 144 73.75C143.75 74.8125 143.562 75.4688 143.438 75.7188C141.688 75.7812 140.062 75.7812 138.562 75.7188C137.125 75.7188 135.875 75.6562 134.812 75.5312C133.562 75.4688 132.438 75.375 131.438 75.25C130.438 75.0625 129.375 74.8438 128.25 74.5938C127.312 74.3438 126.219 74.0312 124.969 73.6562C123.781 73.2812 122.562 72.8125 121.312 72.25C121.062 72.125 120.75 71.7812 120.375 71.2188C120.062 70.6562 119.719 70.0625 119.344 69.4375C119.031 68.75 118.781 68.0938 118.594 67.4688C118.344 66.8438 118.219 66.4062 118.219 66.1562C118.219 66.0938 118.5 66.0312 119.062 65.9688C119.625 65.8438 120.406 65.75 121.406 65.6875C122.406 65.5625 123.531 65.4688 124.781 65.4062C126.031 65.2812 127.375 65.1875 128.812 65.125C128.688 63.3125 128.5 60.9375 128.25 58C128.062 55 127.844 51.7812 127.594 48.3438C127.406 44.8438 127.188 41.2812 126.938 37.6562C126.75 33.9688 126.594 30.5625 126.469 27.4375C126.344 24.25 126.281 21.4688 126.281 19.0938C126.281 16.7188 126.375 15.0625 126.562 14.125C126.625 14 126.656 13.9062 126.656 13.8438C126.656 13.7188 126.688 13.5938 126.75 13.4688L124.125 12.8125C123.375 12.625 122.562 12.4062 121.688 12.1562C120.812 11.9063 119.938 11.625 119.062 11.3125C118.812 11.1875 118.5 10.8438 118.125 10.2812C117.688 9.71875 117.281 9.09375 116.906 8.40625C116.469 7.71875 116.125 7.09375 115.875 6.53125C115.562 5.90625 115.406 5.46875 115.406 5.21875C115.406 5.09375 116.219 4.96875 117.844 4.84375C119.406 4.65625 121.375 4.5 123.75 4.375C126.125 4.25 128.688 4.15625 131.438 4.09375C134.25 4.03125 136.844 4 139.219 4C141.656 4 143.688 4.03125 145.312 4.09375C147 4.09375 147.906 4.15625 148.031 4.28125C148.219 4.46875 148.219 5.09375 148.031 6.15625C147.906 7.15625 147.688 8.28125 147.375 9.53125C147.125 10.7187 146.844 11.8437 146.531 12.9062C146.281 13.9062 146.062 14.5 145.875 14.6875ZM177.656 19.2812C177.406 19.5938 175.875 19.625 173.062 19.375C170.25 19.125 165.812 18.7188 159.75 18.1562C159.75 20.2188 159.75 22.75 159.75 25.75C159.812 28.75 159.812 31.9688 159.75 35.4062C164.438 35.8438 168.094 36.25 170.719 36.625C173.344 37 174.719 37.25 174.844 37.375C175.094 37.625 175.188 38.1562 175.125 38.9688C175.062 39.7188 174.906 40.5625 174.656 41.5C174.406 42.4375 174.094 43.3438 173.719 44.2188C173.344 45.0312 172.969 45.5625 172.594 45.8125C172.281 45.9375 171.031 46.125 168.844 46.375C166.719 46.5625 163.688 46.75 159.75 46.9375C159.75 49.625 159.719 52.2812 159.656 54.9062C159.656 57.5312 159.625 59.9375 159.562 62.125C165.625 62.1875 170.031 62.3125 172.781 62.5C175.594 62.625 177.125 62.8125 177.375 63.0625C177.625 63.375 177.625 63.9688 177.375 64.8438C177.188 65.7188 176.844 66.6562 176.344 67.6562C175.906 68.5938 175.406 69.5312 174.844 70.4688C174.344 71.4062 173.938 72.0625 173.625 72.4375C173.5 72.5625 172.75 72.625 171.375 72.625C170 72.5625 168.469 72.4688 166.781 72.3438C165.094 72.2188 163.469 72.0938 161.906 71.9688C160.344 71.7812 159.312 71.625 158.812 71.5C157.875 71.1875 156.875 70.6875 155.812 70C154.75 69.25 153.906 68.3125 153.281 67.1875C153.156 66.875 152.938 65.8438 152.625 64.0938C152.375 62.2812 152.094 60 151.781 57.25C151.469 54.5 151.156 51.4062 150.844 47.9688C150.531 44.5312 150.219 41.0312 149.906 37.4688C149.594 33.9062 149.312 30.4062 149.062 26.9688C148.812 23.5312 148.594 20.4375 148.406 17.6875C148.281 14.875 148.219 12.5625 148.219 10.75C148.219 8.875 148.312 7.75 148.5 7.375C148.688 6.875 149.562 6.5 151.125 6.25C152.688 6 154.562 5.84375 156.75 5.78125C158.938 5.65625 161.281 5.625 163.781 5.6875C166.344 5.75 168.719 5.875 170.906 6.0625C173.094 6.1875 174.938 6.375 176.438 6.625C177.938 6.8125 178.781 7 178.969 7.1875C179.219 7.5 179.344 8.21875 179.344 9.34375C179.406 10.4688 179.344 11.7188 179.156 13.0938C179.031 14.4062 178.812 15.6875 178.5 16.9375C178.25 18.125 177.969 18.9062 177.656 19.2812ZM191.438 64C190.25 59.9375 188.969 55.1562 187.594 49.6562C186.406 44.9688 185.031 39.25 183.469 32.5C181.906 25.75 180.25 18 178.5 9.25C178.5 8.625 178.844 7.90625 179.531 7.09375C180.219 6.21875 181.031 5.40625 181.969 4.65625C182.969 3.90625 184 3.25 185.062 2.6875C186.125 2.125 187.031 1.84375 187.781 1.84375C188.219 2.34375 188.812 4.46875 189.562 8.21875C189.875 9.84375 190.25 11.875 190.688 14.3125C191.188 16.75 191.719 19.7812 192.281 23.4062C192.844 26.9688 193.469 31.1562 194.156 35.9688C194.844 40.7812 195.625 46.375 196.5 52.75C197.125 48.4375 197.75 44.375 198.375 40.5625C199 36.6875 199.562 33.25 200.062 30.25C200.688 26.8125 201.25 23.625 201.75 20.6875C202 18.875 202.281 16.9688 202.594 14.9688C202.969 12.9062 203.344 11.0312 203.719 9.34375C204.094 7.65625 204.469 6.25 204.844 5.125C205.281 4 205.75 3.4375 206.25 3.4375C206.688 3.375 207.406 3.4375 208.406 3.625C209.469 3.8125 210.5 4.09375 211.5 4.46875C212.5 4.78125 213.375 5.15625 214.125 5.59375C214.938 6.03125 215.344 6.46875 215.344 6.90625C215.344 7.15625 215.094 8.34375 214.594 10.4688C214.156 12.5938 213.5 15.3125 212.625 18.625C211.812 21.875 210.875 25.5625 209.812 29.6875C208.812 33.8125 207.719 38.0312 206.531 42.3438C205.406 46.5938 204.281 50.75 203.156 54.8125C202.031 58.875 201 62.5 200.062 65.6875C199.125 68.8125 198.312 71.3438 197.625 73.2812C197 75.2188 196.562 76.1875 196.312 76.1875C196.062 76.1875 195.406 75.0938 194.344 72.9062C193.281 70.6562 192.312 67.6875 191.438 64ZM239.531 14.6875C238.469 14.75 237.406 14.7812 236.344 14.7812C235.344 14.7188 234.406 14.6875 233.531 14.6875C232.531 14.6875 231.594 14.6562 230.719 14.5938C230.844 17.9062 230.875 21.7812 230.812 26.2188C230.812 30.5938 230.75 35.0938 230.625 39.7188C230.562 44.3438 230.438 48.875 230.25 53.3125C230.125 57.6875 229.969 61.5625 229.781 64.9375C232.156 64.875 234.25 64.875 236.062 64.9375C237.875 65 238.844 65.0938 238.969 65.2188C239.094 65.4062 239.094 66.0312 238.969 67.0938C238.844 68.0938 238.656 69.2188 238.406 70.4688C238.156 71.6562 237.906 72.75 237.656 73.75C237.406 74.8125 237.219 75.4688 237.094 75.7188C235.344 75.7812 233.719 75.7812 232.219 75.7188C230.781 75.7188 229.531 75.6562 228.469 75.5312C227.219 75.4688 226.094 75.375 225.094 75.25C224.094 75.0625 223.031 74.8438 221.906 74.5938C220.969 74.3438 219.875 74.0312 218.625 73.6562C217.438 73.2812 216.219 72.8125 214.969 72.25C214.719 72.125 214.406 71.7812 214.031 71.2188C213.719 70.6562 213.375 70.0625 213 69.4375C212.688 68.75 212.438 68.0938 212.25 67.4688C212 66.8438 211.875 66.4062 211.875 66.1562C211.875 66.0938 212.156 66.0312 212.719 65.9688C213.281 65.8438 214.062 65.75 215.062 65.6875C216.062 65.5625 217.188 65.4688 218.438 65.4062C219.688 65.2812 221.031 65.1875 222.469 65.125C222.344 63.3125 222.156 60.9375 221.906 58C221.719 55 221.5 51.7812 221.25 48.3438C221.062 44.8438 220.844 41.2812 220.594 37.6562C220.406 33.9688 220.25 30.5625 220.125 27.4375C220 24.25 219.938 21.4688 219.938 19.0938C219.938 16.7188 220.031 15.0625 220.219 14.125C220.281 14 220.312 13.9062 220.312 13.8438C220.312 13.7188 220.344 13.5938 220.406 13.4688L217.781 12.8125C217.031 12.625 216.219 12.4062 215.344 12.1562C214.469 11.9063 213.594 11.625 212.719 11.3125C212.469 11.1875 212.156 10.8438 211.781 10.2812C211.344 9.71875 210.938 9.09375 210.562 8.40625C210.125 7.71875 209.781 7.09375 209.531 6.53125C209.219 5.90625 209.062 5.46875 209.062 5.21875C209.062 5.09375 209.875 4.96875 211.5 4.84375C213.062 4.65625 215.031 4.5 217.406 4.375C219.781 4.25 222.344 4.15625 225.094 4.09375C227.906 4.03125 230.5 4 232.875 4C235.312 4 237.344 4.03125 238.969 4.09375C240.656 4.09375 241.562 4.15625 241.688 4.28125C241.875 4.46875 241.875 5.09375 241.688 6.15625C241.562 7.15625 241.344 8.28125 241.031 9.53125C240.781 10.7187 240.5 11.8437 240.188 12.9062C239.938 13.9062 239.719 14.5 239.531 14.6875ZM277.781 7.28125C277.906 7.53125 277.969 8.40625 277.969 9.90625C278.031 11.4062 278.031 13.2188 277.969 15.3438C277.969 17.4688 277.906 19.75 277.781 22.1875C277.656 24.5625 277.5 26.8125 277.312 28.9375C276.938 33.6875 276.5 38.375 276 43C275.5 47.625 275 51.7812 274.5 55.4688C274.062 59.1562 273.625 62.1875 273.188 64.5625C272.812 66.875 272.594 68.1562 272.531 68.4062C272.406 68.7188 272.125 69.1875 271.688 69.8125C271.25 70.4375 270.781 71.0625 270.281 71.6875C269.781 72.25 269.281 72.75 268.781 73.1875C268.344 73.625 268 73.8438 267.75 73.8438C267.25 73.4062 266.344 71.6875 265.031 68.6875C264.469 67.375 263.781 65.75 262.969 63.8125C262.156 61.8125 261.219 59.375 260.156 56.5C259.094 53.625 257.844 50.25 256.406 46.375C255.031 42.4375 253.469 37.875 251.719 32.6875C252.094 37.8125 252.406 42.3125 252.656 46.1875C252.906 50.0625 253.094 53.4375 253.219 56.3125C253.406 59.1875 253.531 61.625 253.594 63.625C253.656 65.5625 253.688 67.1875 253.688 68.5C253.688 71.5 253.594 73.2188 253.406 73.6562C252.781 73.6562 252.094 73.375 251.344 72.8125C250.656 72.1875 250 71.4688 249.375 70.6562C248.75 69.7812 248.188 68.9375 247.688 68.125C247.25 67.3125 247 66.7188 246.938 66.3438C246.875 66.0938 246.688 64.9375 246.375 62.875C246.062 60.8125 245.688 58.1875 245.25 55C244.875 51.75 244.438 48.125 243.938 44.125C243.5 40.0625 243.062 35.9375 242.625 31.75C242.25 27.5625 241.938 23.5 241.688 19.5625C241.438 15.5625 241.312 12 241.312 8.875C241.312 8.375 241.938 7.71875 243.188 6.90625C244.438 6.03125 245.844 5.21875 247.406 4.46875C249.031 3.65625 250.531 2.96875 251.906 2.40625C253.281 1.78125 254.125 1.46875 254.438 1.46875C254.688 1.46875 254.938 2.1875 255.188 3.625C255.5 5.0625 255.812 6.875 256.125 9.0625C256.5 11.25 256.906 13.6875 257.344 16.375C257.844 19.0625 258.375 21.625 258.938 24.0625C259.438 26.6875 260.062 29.6562 260.812 32.9688C261.438 35.7812 262.219 39.1562 263.156 43.0938C264.156 47.0312 265.312 51.4062 266.625 56.2188C266.625 52.8438 266.625 49.25 266.625 45.4375C266.688 41.625 266.75 37.8438 266.812 34.0938C266.875 30.3438 266.938 26.75 267 23.3125C267.125 19.8125 267.219 16.7188 267.281 14.0312C267.406 11.3438 267.5 9.1875 267.562 7.5625C267.688 5.9375 267.781 5.0625 267.844 4.9375C268.031 4.6875 268.625 4.625 269.625 4.75C270.625 4.8125 271.719 5 272.906 5.3125C274.094 5.5625 275.156 5.90625 276.094 6.34375C277.094 6.71875 277.656 7.03125 277.781 7.28125ZM314.625 43.9375C315 44.25 315.281 44.9062 315.469 45.9062C315.656 46.9062 315.75 48 315.75 49.1875C315.75 50.375 315.656 51.4688 315.469 52.4688C315.281 53.4688 315 54.0625 314.625 54.25C314.438 54.375 313.969 54.4062 313.219 54.3438C312.531 54.2812 311.719 54.1562 310.781 53.9688C310.906 55.0312 311 56.0938 311.062 57.1562C311.125 58.2188 311.156 59.0938 311.156 59.7812C311.156 60.9688 310.906 62.5 310.406 64.375C309.969 66.25 309.375 68.0938 308.625 69.9062C307.875 71.6562 307.062 73.1562 306.188 74.4062C305.375 75.6562 304.594 76.25 303.844 76.1875C303.344 76.1875 302.625 75.9688 301.688 75.5312C300.812 75.1562 299.812 74.6562 298.688 74.0312C297.562 73.4688 296.375 72.8125 295.125 72.0625C293.938 71.3125 292.844 70.5938 291.844 69.9062C290.844 69.1562 289.969 68.4688 289.219 67.8438C288.531 67.2188 288.094 66.7188 287.906 66.3438C287.594 65.7812 287.188 64.4375 286.688 62.3125C286.188 60.1875 285.688 57.5938 285.188 54.5312C284.688 51.4062 284.25 48 283.875 44.3125C283.5 40.5625 283.312 36.8125 283.312 33.0625C283.312 29.3125 283.375 25.625 283.5 22C283.625 18.375 283.844 15.125 284.156 12.25C284.531 9.3125 285 6.96875 285.562 5.21875C286.188 3.40625 286.938 2.4375 287.812 2.3125C290.438 2.0625 293.25 2.4375 296.25 3.4375C299.312 4.4375 302.156 5.71875 304.781 7.28125C307.406 8.84375 309.594 10.4688 311.344 12.1562C313.094 13.8438 314.031 15.2188 314.156 16.2812C314.219 17.3438 314.094 18.5312 313.781 19.8438C313.469 21.0938 313.094 22.3438 312.656 23.5938C312.219 24.7812 311.75 25.875 311.25 26.875C310.812 27.8125 310.469 28.4688 310.219 28.8438C309.906 29.2812 309.5 29.75 309 30.25C308.562 30.75 308.094 31.1875 307.594 31.5625C307.156 31.9375 306.688 32.2188 306.188 32.4062C305.75 32.5312 305.344 32.4688 304.969 32.2188C304.719 32.0312 304.469 31.4375 304.219 30.4375C304.031 29.4375 303.812 28.25 303.562 26.875C303.375 25.4375 303.188 23.9375 303 22.375C302.812 20.75 302.625 19.25 302.438 17.875C302.312 16.5 302.188 15.3438 302.062 14.4062C301.938 13.4688 301.844 12.9375 301.781 12.8125C301.656 12.625 301.438 12.4375 301.125 12.25C300.875 12.0625 300.562 11.9063 300.188 11.7812C299.812 11.6562 299.469 11.625 299.156 11.6875C298.844 11.6875 298.594 11.8437 298.406 12.1562C298.219 12.4688 297.875 13.625 297.375 15.625C296.875 17.625 296.375 20.125 295.875 23.125C295.438 26.125 295.031 29.4688 294.656 33.1562C294.281 36.7812 294.094 40.4375 294.094 44.125C294.094 46.75 294.156 49.5 294.281 52.375C294.469 55.1875 294.688 57.7812 294.938 60.1562C295.25 62.4688 295.594 64.4062 295.969 65.9688C296.406 67.5312 296.844 68.3125 297.281 68.3125C297.719 68.375 298.312 67.9375 299.062 67C299.812 66 300.531 64.875 301.219 63.625C301.906 62.3125 302.531 61.0625 303.094 59.875C303.719 58.625 304.125 57.75 304.312 57.25C304.625 56.5625 304.938 55.875 305.25 55.1875C305.625 54.4375 306.031 53.7188 306.469 53.0312C305.469 52.7812 304.469 52.5 303.469 52.1875C302.531 51.875 301.656 51.5938 300.844 51.3438C300.031 51.0312 299.344 50.75 298.781 50.5C298.281 50.1875 297.969 49.9375 297.844 49.75C297.656 49.4375 297.531 49.0312 297.469 48.5312C297.406 47.9688 297.375 47.4375 297.375 46.9375C297.438 46.375 297.5 45.875 297.562 45.4375C297.688 44.9375 297.781 44.5312 297.844 44.2188C297.969 43.7812 298.812 43.4688 300.375 43.2812C302 43.0938 303.781 43 305.719 43C307.719 43 309.594 43.0938 311.344 43.2812C313.094 43.4062 314.188 43.625 314.625 43.9375ZM372.375 7.28125C372.5 7.53125 372.562 8.40625 372.562 9.90625C372.625 11.4062 372.625 13.2188 372.562 15.3438C372.562 17.4688 372.5 19.75 372.375 22.1875C372.25 24.5625 372.094 26.8125 371.906 28.9375C371.531 33.6875 371.094 38.375 370.594 43C370.094 47.625 369.594 51.7812 369.094 55.4688C368.656 59.1562 368.219 62.1875 367.781 64.5625C367.406 66.875 367.188 68.1562 367.125 68.4062C367 68.7188 366.719 69.1875 366.281 69.8125C365.844 70.4375 365.375 71.0625 364.875 71.6875C364.375 72.25 363.875 72.75 363.375 73.1875C362.938 73.625 362.594 73.8438 362.344 73.8438C361.844 73.4062 360.938 71.6875 359.625 68.6875C359.062 67.375 358.375 65.75 357.562 63.8125C356.75 61.8125 355.812 59.375 354.75 56.5C353.688 53.625 352.438 50.25 351 46.375C349.625 42.4375 348.062 37.875 346.312 32.6875C346.688 37.8125 347 42.3125 347.25 46.1875C347.5 50.0625 347.688 53.4375 347.812 56.3125C348 59.1875 348.125 61.625 348.188 63.625C348.25 65.5625 348.281 67.1875 348.281 68.5C348.281 71.5 348.188 73.2188 348 73.6562C347.375 73.6562 346.688 73.375 345.938 72.8125C345.25 72.1875 344.594 71.4688 343.969 70.6562C343.344 69.7812 342.781 68.9375 342.281 68.125C341.844 67.3125 341.594 66.7188 341.531 66.3438C341.469 66.0938 341.281 64.9375 340.969 62.875C340.656 60.8125 340.281 58.1875 339.844 55C339.469 51.75 339.031 48.125 338.531 44.125C338.094 40.0625 337.656 35.9375 337.219 31.75C336.844 27.5625 336.531 23.5 336.281 19.5625C336.031 15.5625 335.906 12 335.906 8.875C335.906 8.375 336.531 7.71875 337.781 6.90625C339.031 6.03125 340.438 5.21875 342 4.46875C343.625 3.65625 345.125 2.96875 346.5 2.40625C347.875 1.78125 348.719 1.46875 349.031 1.46875C349.281 1.46875 349.531 2.1875 349.781 3.625C350.094 5.0625 350.406 6.875 350.719 9.0625C351.094 11.25 351.5 13.6875 351.938 16.375C352.438 19.0625 352.969 21.625 353.531 24.0625C354.031 26.6875 354.656 29.6562 355.406 32.9688C356.031 35.7812 356.812 39.1562 357.75 43.0938C358.75 47.0312 359.906 51.4062 361.219 56.2188C361.219 52.8438 361.219 49.25 361.219 45.4375C361.281 41.625 361.344 37.8438 361.406 34.0938C361.469 30.3438 361.531 26.75 361.594 23.3125C361.719 19.8125 361.812 16.7188 361.875 14.0312C362 11.3438 362.094 9.1875 362.156 7.5625C362.281 5.9375 362.375 5.0625 362.438 4.9375C362.625 4.6875 363.219 4.625 364.219 4.75C365.219 4.8125 366.312 5 367.5 5.3125C368.688 5.5625 369.75 5.90625 370.688 6.34375C371.688 6.71875 372.25 7.03125 372.375 7.28125ZM405.938 19.2812C405.688 19.5938 404.156 19.625 401.344 19.375C398.531 19.125 394.094 18.7188 388.031 18.1562C388.031 20.2188 388.031 22.75 388.031 25.75C388.094 28.75 388.094 31.9688 388.031 35.4062C392.719 35.8438 396.375 36.25 399 36.625C401.625 37 403 37.25 403.125 37.375C403.375 37.625 403.469 38.1562 403.406 38.9688C403.344 39.7188 403.188 40.5625 402.938 41.5C402.688 42.4375 402.375 43.3438 402 44.2188C401.625 45.0312 401.25 45.5625 400.875 45.8125C400.562 45.9375 399.312 46.125 397.125 46.375C395 46.5625 391.969 46.75 388.031 46.9375C388.031 49.625 388 52.2812 387.938 54.9062C387.938 57.5312 387.906 59.9375 387.844 62.125C393.906 62.1875 398.312 62.3125 401.062 62.5C403.875 62.625 405.406 62.8125 405.656 63.0625C405.906 63.375 405.906 63.9688 405.656 64.8438C405.469 65.7188 405.125 66.6562 404.625 67.6562C404.188 68.5938 403.688 69.5312 403.125 70.4688C402.625 71.4062 402.219 72.0625 401.906 72.4375C401.781 72.5625 401.031 72.625 399.656 72.625C398.281 72.5625 396.75 72.4688 395.062 72.3438C393.375 72.2188 391.75 72.0938 390.188 71.9688C388.625 71.7812 387.594 71.625 387.094 71.5C386.156 71.1875 385.156 70.6875 384.094 70C383.031 69.25 382.188 68.3125 381.562 67.1875C381.438 66.875 381.219 65.8438 380.906 64.0938C380.656 62.2812 380.375 60 380.062 57.25C379.75 54.5 379.438 51.4062 379.125 47.9688C378.812 44.5312 378.5 41.0312 378.188 37.4688C377.875 33.9062 377.594 30.4062 377.344 26.9688C377.094 23.5312 376.875 20.4375 376.688 17.6875C376.562 14.875 376.5 12.5625 376.5 10.75C376.5 8.875 376.594 7.75 376.781 7.375C376.969 6.875 377.844 6.5 379.406 6.25C380.969 6 382.844 5.84375 385.031 5.78125C387.219 5.65625 389.562 5.625 392.062 5.6875C394.625 5.75 397 5.875 399.188 6.0625C401.375 6.1875 403.219 6.375 404.719 6.625C406.219 6.8125 407.062 7 407.25 7.1875C407.5 7.5 407.625 8.21875 407.625 9.34375C407.688 10.4688 407.625 11.7188 407.438 13.0938C407.312 14.4062 407.094 15.6875 406.781 16.9375C406.531 18.125 406.25 18.9062 405.938 19.2812ZM449.156 3.0625C449.406 3.3125 449.469 4.5625 449.344 6.8125C449.281 9 449.062 11.8125 448.688 15.25C448.312 18.6875 447.844 22.5938 447.281 26.9688C446.781 31.3438 446.219 35.7812 445.594 40.2812C444.969 44.7812 444.312 49.1875 443.625 53.5C443 57.75 442.375 61.5625 441.75 64.9375C441.188 68.25 440.656 70.9375 440.156 73C439.719 75 439.375 76 439.125 76C438.688 76 438.188 75.75 437.625 75.25C437.062 74.75 436.5 74.125 435.938 73.375C435.438 72.6875 434.969 72 434.531 71.3125C434.156 70.5625 433.938 69.9688 433.875 69.5312C433.688 68.7188 433.312 67.1562 432.75 64.8438C432.25 62.5312 431.75 59.6562 431.25 56.2188C430.938 53.9688 430.625 51.5938 430.312 49.0938C430 46.9688 429.656 44.6562 429.281 42.1562C428.969 39.5938 428.656 37.0312 428.344 34.4688C428.094 36.0938 427.781 38.0312 427.406 40.2812C427.031 42.5312 426.656 44.6875 426.281 46.75C425.844 49.1875 425.375 51.6562 424.875 54.1562C424.438 56.7812 423.969 59.375 423.469 61.9375C422.969 64.4375 422.469 66.7188 421.969 68.7812C421.469 70.7812 421 72.4062 420.562 73.6562C420.188 74.9062 419.875 75.5625 419.625 75.625C419.188 75.75 418.656 75.5938 418.031 75.1562C417.406 74.7812 416.781 74.25 416.156 73.5625C415.531 72.875 414.969 72.1562 414.469 71.4062C414.031 70.5938 413.75 69.9062 413.625 69.3438C412.75 63.2188 412 57.7188 411.375 52.8438C410.812 47.9688 410.312 43.6562 409.875 39.9062C409.438 36.0938 409.094 32.8125 408.844 30.0625C408.594 27.3125 408.375 24.9375 408.188 22.9375C407.812 18.3125 407.656 15.0938 407.719 13.2812C407.906 11.9688 408.406 10.6562 409.219 9.34375C410.031 7.96875 410.938 6.75 411.938 5.6875C412.938 4.625 413.875 3.8125 414.75 3.25C415.688 2.625 416.312 2.40625 416.625 2.59375C416.812 2.71875 417 3.5625 417.188 5.125C417.375 6.625 417.531 8.625 417.656 11.125C417.781 13.5625 417.906 16.375 418.031 19.5625C418.156 22.75 418.25 26.0938 418.312 29.5938C418.438 33.0312 418.531 36.5 418.594 40C418.719 43.5 418.844 46.7812 418.969 49.8438C419.219 48.2812 419.469 46.5 419.719 44.5C420.031 42.5 420.344 40.4062 420.656 38.2188C421.031 36.0312 421.375 33.875 421.688 31.75C422 29.5625 422.281 27.5625 422.531 25.75C422.844 23.9375 423.125 22.375 423.375 21.0625C423.688 19.75 423.938 18.8438 424.125 18.3438C424.75 16.9062 425.469 15.6562 426.281 14.5938C427.156 13.5312 427.969 12.6562 428.719 11.9688C429.531 11.2812 430.25 10.7813 430.875 10.4688C431.562 10.0938 432.031 9.9375 432.281 10C432.344 10 432.469 10.6562 432.656 11.9688C432.844 13.2188 433.031 14.875 433.219 16.9375C433.469 19 433.719 21.375 433.969 24.0625C434.281 26.6875 434.594 29.4375 434.906 32.3125C435.219 35.125 435.531 37.9375 435.844 40.75C436.156 43.5 436.5 46 436.875 48.25C437 46.1875 437.125 43.9062 437.25 41.4062C437.375 38.8438 437.5 36.25 437.625 33.625C437.812 31 437.969 28.4375 438.094 25.9375C438.281 23.4375 438.438 21.1562 438.562 19.0938C438.75 17.0312 438.906 15.2812 439.031 13.8438C439.219 12.3438 439.406 11.3438 439.594 10.8438C439.969 9.59375 440.625 8.4375 441.562 7.375C442.5 6.25 443.469 5.34375 444.469 4.65625C445.531 3.90625 446.5 3.40625 447.375 3.15625C448.312 2.84375 448.906 2.8125 449.156 3.0625ZM509.625 3.0625C509.875 3.3125 509.938 4.5625 509.812 6.8125C509.75 9 509.531 11.8125 509.156 15.25C508.781 18.6875 508.312 22.5938 507.75 26.9688C507.25 31.3438 506.688 35.7812 506.062 40.2812C505.438 44.7812 504.781 49.1875 504.094 53.5C503.469 57.75 502.844 61.5625 502.219 64.9375C501.656 68.25 501.125 70.9375 500.625 73C500.188 75 499.844 76 499.594 76C499.156 76 498.656 75.75 498.094 75.25C497.531 74.75 496.969 74.125 496.406 73.375C495.906 72.6875 495.438 72 495 71.3125C494.625 70.5625 494.406 69.9688 494.344 69.5312C494.156 68.7188 493.781 67.1562 493.219 64.8438C492.719 62.5312 492.219 59.6562 491.719 56.2188C491.406 53.9688 491.094 51.5938 490.781 49.0938C490.469 46.9688 490.125 44.6562 489.75 42.1562C489.438 39.5938 489.125 37.0312 488.812 34.4688C488.562 36.0938 488.25 38.0312 487.875 40.2812C487.5 42.5312 487.125 44.6875 486.75 46.75C486.312 49.1875 485.844 51.6562 485.344 54.1562C484.906 56.7812 484.438 59.375 483.938 61.9375C483.438 64.4375 482.938 66.7188 482.438 68.7812C481.938 70.7812 481.469 72.4062 481.031 73.6562C480.656 74.9062 480.344 75.5625 480.094 75.625C479.656 75.75 479.125 75.5938 478.5 75.1562C477.875 74.7812 477.25 74.25 476.625 73.5625C476 72.875 475.438 72.1562 474.938 71.4062C474.5 70.5938 474.219 69.9062 474.094 69.3438C473.219 63.2188 472.469 57.7188 471.844 52.8438C471.281 47.9688 470.781 43.6562 470.344 39.9062C469.906 36.0938 469.562 32.8125 469.312 30.0625C469.062 27.3125 468.844 24.9375 468.656 22.9375C468.281 18.3125 468.125 15.0938 468.188 13.2812C468.375 11.9688 468.875 10.6562 469.688 9.34375C470.5 7.96875 471.406 6.75 472.406 5.6875C473.406 4.625 474.344 3.8125 475.219 3.25C476.156 2.625 476.781 2.40625 477.094 2.59375C477.281 2.71875 477.469 3.5625 477.656 5.125C477.844 6.625 478 8.625 478.125 11.125C478.25 13.5625 478.375 16.375 478.5 19.5625C478.625 22.75 478.719 26.0938 478.781 29.5938C478.906 33.0312 479 36.5 479.062 40C479.188 43.5 479.312 46.7812 479.438 49.8438C479.688 48.2812 479.938 46.5 480.188 44.5C480.5 42.5 480.812 40.4062 481.125 38.2188C481.5 36.0312 481.844 33.875 482.156 31.75C482.469 29.5625 482.75 27.5625 483 25.75C483.312 23.9375 483.594 22.375 483.844 21.0625C484.156 19.75 484.406 18.8438 484.594 18.3438C485.219 16.9062 485.938 15.6562 486.75 14.5938C487.625 13.5312 488.438 12.6562 489.188 11.9688C490 11.2812 490.719 10.7813 491.344 10.4688C492.031 10.0938 492.5 9.9375 492.75 10C492.812 10 492.938 10.6562 493.125 11.9688C493.312 13.2188 493.5 14.875 493.688 16.9375C493.938 19 494.188 21.375 494.438 24.0625C494.75 26.6875 495.062 29.4375 495.375 32.3125C495.688 35.125 496 37.9375 496.312 40.75C496.625 43.5 496.969 46 497.344 48.25C497.469 46.1875 497.594 43.9062 497.719 41.4062C497.844 38.8438 497.969 36.25 498.094 33.625C498.281 31 498.438 28.4375 498.562 25.9375C498.75 23.4375 498.906 21.1562 499.031 19.0938C499.219 17.0312 499.375 15.2812 499.5 13.8438C499.688 12.3438 499.875 11.3438 500.062 10.8438C500.438 9.59375 501.094 8.4375 502.031 7.375C502.969 6.25 503.938 5.34375 504.938 4.65625C506 3.90625 506.969 3.40625 507.844 3.15625C508.781 2.84375 509.375 2.8125 509.625 3.0625ZM514.688 12.625C515 12.0625 515.656 11.3438 516.656 10.4688C517.656 9.53125 518.844 8.59375 520.219 7.65625C521.656 6.71875 523.188 5.875 524.812 5.125C526.438 4.3125 528.062 3.78125 529.688 3.53125C531.375 3.21875 532.938 3.28125 534.375 3.71875C535.875 4.09375 537.156 4.96875 538.219 6.34375C538.781 7.03125 539.312 8.40625 539.812 10.4688C540.312 12.5312 540.781 15.0312 541.219 17.9688C541.719 20.8438 542.156 24.0625 542.531 27.625C542.906 31.125 543.219 34.7188 543.469 38.4062C543.719 42.0312 543.875 45.625 543.938 49.1875C544.062 52.6875 544.062 55.9375 543.938 58.9375C543.875 61.875 543.688 64.4062 543.375 66.5312C543.125 68.5938 542.719 70.0312 542.156 70.8438C541.031 72.4688 539.281 73.5625 536.906 74.125C534.531 74.6875 532.031 74.6875 529.406 74.125C526.781 73.625 524.281 72.5625 521.906 70.9375C519.531 69.3125 517.781 67.125 516.656 64.375C515.906 62.5625 515.281 60.0938 514.781 56.9688C514.344 53.8438 514 50.4688 513.75 46.8438C513.5 43.1562 513.344 39.4062 513.281 35.5938C513.281 31.7812 513.312 28.2812 513.375 25.0938C513.5 21.8438 513.656 19.0938 513.844 16.8438C514.094 14.5938 514.375 13.1875 514.688 12.625ZM533.062 60.1562C533.438 59.7812 533.688 58.7812 533.812 57.1562C534 55.4688 534.094 53.5 534.094 51.25C534.156 48.9375 534.156 46.5 534.094 43.9375C534.094 41.375 534.094 39 534.094 36.8125C534.094 31.25 533.906 26.9375 533.531 23.875C533.156 20.8125 532.719 18.5312 532.219 17.0312C531.656 15.2812 531.031 14.1875 530.344 13.75C529.406 13.9375 528.625 14.25 528 14.6875C527.375 15.0625 526.875 15.5 526.5 16C526.062 16.5625 525.719 17.1562 525.469 17.7812C525.281 18.3438 525.062 19.4375 524.812 21.0625C524.625 22.6875 524.438 24.625 524.25 26.875C524.062 29.0625 523.875 31.4688 523.688 34.0938C523.562 36.6562 523.438 39.1875 523.312 41.6875C523.25 44.1875 523.188 46.5625 523.125 48.8125C523.125 51 523.156 52.8125 523.219 54.25C523.344 56.4375 523.844 58.0312 524.719 59.0312C525.656 60.0312 526.656 60.6875 527.719 61C528.781 61.25 529.812 61.25 530.812 61C531.875 60.75 532.625 60.4688 533.062 60.1562ZM583.781 13.4688C584.094 13.8438 584.406 14.9062 584.719 16.6562C585.031 18.4062 585.25 20.3125 585.375 22.375C585.562 24.4375 585.625 26.375 585.562 28.1875C585.562 30 585.406 31.1875 585.094 31.75C584.844 32.125 584.219 32.8125 583.219 33.8125C582.219 34.75 581.062 35.8125 579.75 37C578.438 38.1875 577.062 39.375 575.625 40.5625C574.25 41.6875 573.031 42.6562 571.969 43.4688C572.469 44.4688 573.094 45.7812 573.844 47.4062C574.594 48.9688 575.406 50.6562 576.281 52.4688C577.156 54.2188 578 56.0312 578.812 57.9062C579.688 59.7812 580.469 61.5 581.156 63.0625C581.844 64.5625 582.406 65.8438 582.844 66.9062C583.281 67.9062 583.5 68.5 583.5 68.6875C583.5 69 583.344 69.4375 583.031 70C582.781 70.5625 582.438 71.0938 582 71.5938C581.562 72.0312 581.094 72.4062 580.594 72.7188C580.094 73.0312 579.625 73.0938 579.188 72.9062C578.938 72.8438 578.469 72.3438 577.781 71.4062C577.094 70.4062 576.25 69.1875 575.25 67.75C574.312 66.25 573.25 64.5625 572.062 62.6875C570.938 60.8125 569.781 58.9375 568.594 57.0625C567.406 55.125 566.281 53.2812 565.219 51.5312C564.156 49.7188 563.219 48.125 562.406 46.75C562.281 53.25 562.125 58.25 561.938 61.75C561.812 65.25 561.719 67.8125 561.656 69.4375C561.531 71.375 561.406 72.4688 561.281 72.7188C561.094 72.7188 560.688 72.4688 560.062 71.9688C559.438 71.4062 558.781 70.75 558.094 70C557.406 69.25 556.75 68.5 556.125 67.75C555.562 67 555.219 66.4375 555.094 66.0625C554.969 65.25 554.781 62.9062 554.531 59.0312C554.406 57.3438 554.281 55.25 554.156 52.75C554.031 50.25 553.875 47.2188 553.688 43.6562C553.562 40.0938 553.375 35.9062 553.125 31.0938C552.875 26.2812 552.625 20.75 552.375 14.5C551.25 14.4375 550.344 14.4375 549.656 14.5C548.969 14.5 548.438 14.5312 548.062 14.5938C547.688 14.6562 547.406 14.6875 547.219 14.6875C547.031 14.625 546.875 14.4688 546.75 14.2188C546.5 13.7188 546.312 12.875 546.188 11.6875C546.062 10.4375 546 9.25 546 8.125C546 6.875 546.188 5.625 546.562 4.375C546.875 3.125 547.281 2.34375 547.781 2.03125C548.031 1.84375 548.906 1.875 550.406 2.125C551.906 2.3125 553.562 2.5625 555.375 2.875C557.188 3.1875 558.906 3.53125 560.531 3.90625C562.219 4.28125 563.312 4.53125 563.812 4.65625C564.25 4.78125 564.969 5 565.969 5.3125C566.969 5.5625 568.125 5.9375 569.438 6.4375C570.75 6.875 572.125 7.375 573.562 7.9375C575.062 8.5 576.469 9.09375 577.781 9.71875C579.094 10.3437 580.281 10.9688 581.344 11.5938C582.406 12.2188 583.219 12.8438 583.781 13.4688ZM562.688 39.9062C563.25 39.5938 564 39 564.938 38.125C565.875 37.1875 566.875 36.1562 567.938 35.0312C569.062 33.8438 570.188 32.625 571.312 31.375C572.438 30.0625 573.438 28.8438 574.312 27.7188C575.25 26.5938 576 25.625 576.562 24.8125C577.125 24 577.406 23.4688 577.406 23.2188C577.406 22.7812 577 22.2812 576.188 21.7188C575.438 21.0938 574.438 20.4688 573.188 19.8438C571.938 19.2188 570.469 18.625 568.781 18.0625C567.094 17.4375 565.375 16.9062 563.625 16.4688L562.688 39.9062ZM590.625 75.9062C590.5 75.5938 590.438 74.4688 590.438 72.5312C590.438 70.5938 590.438 68.1562 590.438 65.2188C590.5 62.2812 590.562 59 590.625 55.375C590.75 51.6875 590.844 47.9688 590.906 44.2188C591.031 40.4062 591.156 36.7188 591.281 33.1562C591.406 29.5312 591.5 26.3125 591.562 23.5C591.688 20.6875 591.781 18.4062 591.844 16.6562C591.906 14.8438 591.969 13.875 592.031 13.75C592.094 13.5 592.375 12.875 592.875 11.875C593.375 10.875 593.938 9.84375 594.562 8.78125C595.25 7.65625 595.938 6.6875 596.625 5.875C597.312 5 597.906 4.59375 598.406 4.65625C598.594 4.71875 598.75 5.96875 598.875 8.40625C599.062 10.7813 599.219 13.8438 599.344 17.5938C599.531 21.3438 599.656 25.5 599.719 30.0625C599.844 34.5625 599.938 38.9688 600 43.2812C600.125 47.5312 600.219 51.4062 600.281 54.9062C600.344 58.3438 600.406 60.875 600.469 62.5C602.469 62.6875 604.469 62.8438 606.469 62.9688C608.531 63.0938 610.375 63.25 612 63.4375C613.625 63.5625 614.938 63.6875 615.938 63.8125C617 63.9375 617.562 64.0312 617.625 64.0938C617.812 64.3438 618.062 64.9375 618.375 65.875C618.75 66.75 619.094 67.7188 619.406 68.7812C619.719 69.7812 619.938 70.7188 620.062 71.5938C620.25 72.4688 620.219 73 619.969 73.1875C612.781 74.5 607.219 75.375 603.281 75.8125C599.344 76.25 596.438 76.4688 594.562 76.4688C592.375 76.4688 591.062 76.2812 590.625 75.9062ZM631.969 3.34375C633.219 3.59375 634.938 4.34375 637.125 5.59375C639.312 6.78125 641.5 8.15625 643.688 9.71875C645.938 11.2188 647.906 12.7188 649.594 14.2188C651.281 15.6562 652.281 16.6875 652.594 17.3125C652.844 17.9375 652.938 19.0938 652.875 20.7812C652.812 22.4688 652.625 24.5312 652.312 26.9688C652 29.3438 651.594 31.9688 651.094 34.8438C650.594 37.7188 650.031 40.625 649.406 43.5625C648.781 46.4375 648.094 49.25 647.344 52C646.656 54.6875 645.938 57.0625 645.188 59.125C644.875 60.125 644.188 61.2188 643.125 62.4062C642.062 63.5938 640.812 64.7812 639.375 65.9688C637.938 67.0938 636.406 68.1562 634.781 69.1562C633.219 70.1562 631.719 71 630.281 71.6875C628.906 72.375 627.656 72.8438 626.531 73.0938C625.469 73.3438 624.75 73.2812 624.375 72.9062C624 72.5312 623.594 71.3438 623.156 69.3438C622.781 67.2812 622.406 64.7188 622.031 61.6562C621.656 58.5312 621.312 55.0625 621 51.25C620.688 47.375 620.406 43.4375 620.156 39.4375C619.906 35.4375 619.688 31.5312 619.5 27.7188C619.375 23.8438 619.281 20.375 619.219 17.3125C619.219 14.1875 619.281 11.5938 619.406 9.53125C619.531 7.40625 619.75 6.125 620.062 5.6875C620.312 5.375 620.938 5.0625 621.938 4.75C623 4.4375 624.156 4.15625 625.406 3.90625C626.719 3.65625 628 3.46875 629.25 3.34375C630.5 3.21875 631.406 3.21875 631.969 3.34375ZM631.406 15.25C630.969 15.5625 630.656 16.5312 630.469 18.1562C630.281 19.7188 630.125 21.625 630 23.875C629.938 26.0625 629.906 28.4062 629.906 30.9062C629.906 33.4062 629.875 35.6875 629.812 37.75C629.688 43.125 629.625 47.375 629.625 50.5C629.688 53.5625 629.75 55.875 629.812 57.4375C629.938 58.9375 630.094 59.9062 630.281 60.3438C630.469 60.7188 630.719 60.9062 631.031 60.9062C631.281 60.9062 631.688 60.7188 632.25 60.3438C632.875 59.9688 633.531 59.5 634.219 58.9375C634.906 58.375 635.562 57.7812 636.188 57.1562C636.812 56.4688 637.25 55.875 637.5 55.375C637.75 54.875 638.062 53.9062 638.438 52.4688C638.812 50.9688 639.188 49.25 639.562 47.3125C639.938 45.3125 640.312 43.2188 640.688 41.0312C641.062 38.7812 641.375 36.6562 641.625 34.6562C641.938 32.5938 642.156 30.7812 642.281 29.2188C642.469 27.5938 642.562 26.4375 642.562 25.75C642.5 24.4375 641.969 23.0938 640.969 21.7188C639.969 20.3438 638.812 19.125 637.5 18.0625C636.25 17 635 16.1875 633.75 15.625C632.562 15.0625 631.781 14.9375 631.406 15.25ZM664.125 54.8125C664.312 55.3125 664.406 55.9688 664.406 56.7812C664.406 57.5312 664.312 58.3438 664.125 59.2188C663.938 60.0312 663.688 60.8438 663.375 61.6562C663.125 62.4062 662.844 63.0312 662.531 63.5312C662.281 63.9062 661.938 64.2188 661.5 64.4688C661.062 64.7188 660.594 64.9062 660.094 65.0312C659.594 65.0938 659.125 65.125 658.688 65.125C658.25 65.125 657.906 65.125 657.656 65.125C657.281 65.0625 656.875 64.7812 656.438 64.2812C656.062 63.7812 655.719 63.1875 655.406 62.5C655.156 61.75 654.969 60.9688 654.844 60.1562C654.719 59.2812 654.75 58.4688 654.938 57.7188C655.125 56.9688 655.656 56.3125 656.531 55.75C657.406 55.1875 658.344 54.75 659.344 54.4375C660.406 54.125 661.406 54 662.344 54.0625C663.281 54.0625 663.875 54.3125 664.125 54.8125Z" fill="white"/>
</g>
</g>
<defs>
<clipPath id="clip0_1_12">
<rect width="665" height="77" fill="white"/>
</clipPath>
</defs>
</svg>
