<svg width="449" height="194" viewBox="0 0 449 194" fill="none" xmlns="http://www.w3.org/2000/svg">
<path d="M41.25 47.5313C41.375 47.7187 41.3438 48.3437 41.1563 49.4063C41.0313 50.4687 40.8125 51.625 40.5 52.875C40.25 54.125 39.9688 55.3125 39.6563 56.4375C39.4063 57.5 39.1875 58.125 39 58.3125H38.0625C37.875 58.3125 37.6875 58.2813 37.5 58.2187C37.8125 61.2187 38.0625 63.625 38.25 65.4375C38.4375 67.25 38.5313 68.25 38.5313 68.4375C38.5313 68.875 38.3125 69.5 37.875 70.3125C37.5 71.125 37.0625 71.875 36.5625 72.5625C36.0625 73.25 35.5313 73.7813 34.9688 74.1563C34.4688 74.5937 34.125 74.625 33.9375 74.25C33.625 73.6875 32.9688 72 31.9688 69.1875C30.9688 66.375 29.8438 62.5313 28.5938 57.6563C27.3438 57.5313 26.0313 57.4063 24.6563 57.2813C23.3438 57.1563 22 57.0313 20.625 56.9063C19.25 56.7813 17.875 56.625 16.5 56.4375C15.1875 56.1875 13.9063 55.9687 12.6563 55.7813C12.0313 58.5313 11.4063 61.125 10.7813 63.5625C10.2188 66 9.65625 68.125 9.09375 69.9375C8.59375 71.75 8.15625 73.1875 7.78125 74.25C7.40625 75.3125 7.125 75.8437 6.9375 75.8437C6.4375 75.8437 5.9375 75.5313 5.4375 74.9063C4.9375 74.2813 4.46875 73.5313 4.03125 72.6563C3.65625 71.7813 3.34376 70.875 3.09376 69.9375C2.84376 69 2.71876 68.2187 2.71876 67.5937C2.84376 66.1563 2.99999 64.6563 3.18749 63.0937C3.43749 61.5313 3.62499 60.0937 3.74999 58.7813C3.93749 57.2187 4.125 55.6875 4.3125 54.1875H3.9375C3.6875 54.0625 3.34376 53.7813 2.90626 53.3437C2.46876 52.9063 2.03126 52.4687 1.59376 52.0313C1.15626 51.5313 0.78125 51.0625 0.46875 50.625C0.15625 50.125 0 49.75 0 49.5C0 49.375 0.4375 49.25 1.31249 49.125C2.24999 49 3.46875 48.875 4.96875 48.75C5.46875 45 6 41.0937 6.5625 37.0313C7.125 32.9687 7.6875 29.1563 8.25 25.5937C8.8125 22.0313 9.34375 18.9375 9.84375 16.3125C10.4063 13.625 10.875 11.7813 11.25 10.7813C11.875 9.09375 12.9688 7.59375 14.5313 6.28125C16.0938 4.90625 17.7188 3.78125 19.4063 2.90625C21.1563 1.96875 22.8125 1.25 24.375 0.75C25.9375 0.25 27.0938 0 27.8438 0C28.1563 0 28.5 0.71875 28.875 2.15625C29.3125 3.53125 29.75 5.40625 30.1875 7.78125C30.6875 10.1563 31.1875 12.9375 31.6875 16.125C32.25 19.25 32.7813 22.5625 33.2813 26.0625C33.7813 29.5625 34.25 33.1563 34.6875 36.8437C35.1875 40.4687 35.6563 43.9375 36.0938 47.25C39.2188 47.25 40.9375 47.3437 41.25 47.5313ZM14.4375 48.0937C16.4375 47.9687 18.4375 47.875 20.4375 47.8125C22.4375 47.75 24.4063 47.6563 26.3438 47.5313C25.8438 45.0937 25.2813 42.375 24.6563 39.375C24.1563 36.8125 23.5625 33.8125 22.875 30.375C22.1875 26.9375 21.5 23.1563 20.8125 19.0313C20.0625 22.7187 19.3125 26.3125 18.5625 29.8125C17.8125 33.25 17.125 36.3437 16.5 39.0937C15.8125 42.2813 15.125 45.2813 14.4375 48.0937ZM63.0938 10.9687C62.9688 10.7813 62.75 10.5937 62.4375 10.4063C62.1875 10.2187 61.875 10.0625 61.5 9.9375C61.125 9.8125 60.75 9.7813 60.375 9.8437C60.0625 9.8437 59.8125 9.9688 59.625 10.2187C59.4375 10.5313 59.0938 11.7187 58.5938 13.7813C58.1563 15.7813 57.6875 18.2813 57.1875 21.2813C56.6875 24.2813 56.25 27.625 55.875 31.3125C55.5 35 55.3125 38.6563 55.3125 42.2813C55.3125 44.9063 55.4063 47.6563 55.5938 50.5313C55.7813 53.3437 56 55.9375 56.25 58.3125C56.5625 60.6875 56.9063 62.6563 57.2813 64.2187C57.7188 65.7187 58.1563 66.4687 58.5938 66.4687C59.0313 66.5313 59.625 66.0625 60.375 65.0625C61.125 64.0625 61.8438 62.9375 62.5313 61.6875C63.2188 60.375 63.8438 59.125 64.4063 57.9375C65.0313 56.6875 65.4375 55.8437 65.625 55.4063C65.875 54.7187 66.2188 53.9687 66.6563 53.1563C67.0938 52.2813 67.5313 51.5 67.9688 50.8125C68.4063 50.0625 68.8438 49.4687 69.2813 49.0313C69.7188 48.5313 70.0938 48.2813 70.4063 48.2813C70.7813 48.2813 71.0938 48.6563 71.3438 49.4063C71.6563 50.1563 71.875 51.0625 72 52.125C72.1875 53.125 72.3125 54.1875 72.375 55.3125C72.4375 56.375 72.4688 57.25 72.4688 57.9375C72.4688 59.1875 72.2188 60.75 71.7188 62.625C71.2813 64.5 70.6875 66.3125 69.9375 68.0625C69.25 69.8125 68.4688 71.3125 67.5938 72.5625C66.7813 73.8125 66 74.4063 65.25 74.3437C64.5 74.2813 63.2813 73.8437 61.5938 73.0313C59.9688 72.2187 58.2813 71.2813 56.5313 70.2187C54.7813 69.1563 53.1875 68.0937 51.75 67.0313C50.3125 65.9687 49.4688 65.125 49.2188 64.5C48.9063 63.9375 48.4375 62.5937 47.8125 60.4687C47.25 58.2813 46.6563 55.6563 46.0313 52.5937C45.4063 49.5313 44.8438 46.1563 44.3438 42.4687C43.9063 38.7813 43.6875 35.0625 43.6875 31.3125C43.6875 27.5625 43.7188 23.875 43.7813 20.25C43.8438 16.5625 43.9688 13.2813 44.1563 10.4063C44.4063 7.53125 44.7813 5.21875 45.2813 3.46875C45.7813 1.65625 46.4688 0.6875 47.3438 0.5625C49.0938 0.375 51 0.5 53.0625 0.9375C55.125 1.3125 57.1875 1.90625 59.25 2.71875C61.3125 3.53125 63.2813 4.46875 65.1563 5.53125C67.0938 6.53125 68.8125 7.59375 70.3125 8.71875C71.8125 9.7813 73 10.8125 73.875 11.8125C74.8125 12.8125 75.3125 13.6563 75.375 14.3437C75.4375 15.4063 75.3125 16.5937 75 17.9063C74.6875 19.2187 74.3125 20.5 73.875 21.75C73.4375 22.9375 72.9688 24.0313 72.4688 25.0313C72.0313 25.9687 71.6875 26.625 71.4375 27C71.125 27.4375 70.75 27.9063 70.3125 28.4063C69.875 28.9063 69.4063 29.3437 68.9063 29.7187C68.4688 30.0937 68 30.375 67.5 30.5625C67.0625 30.6875 66.6563 30.5937 66.2813 30.2813C66.0313 30.0937 65.7813 29.5 65.5313 28.5C65.3438 27.5 65.125 26.3125 64.875 24.9375C64.6875 23.5625 64.5 22.0937 64.3125 20.5313C64.125 18.9063 63.9375 17.4063 63.75 16.0313C63.625 14.6563 63.5 13.5 63.375 12.5625C63.25 11.625 63.1563 11.0938 63.0938 10.9687ZM115.781 46.4063C115.906 46.6563 115.906 47.3437 115.781 48.4687C115.656 49.5313 115.438 50.6875 115.125 51.9375C114.875 53.1875 114.594 54.375 114.281 55.5C114.031 56.5625 113.844 57.1875 113.719 57.375C113.406 57.375 113.063 57.375 112.688 57.375C112.375 57.3125 112.063 57.2813 111.75 57.2813C111.438 57.2813 111.094 57.25 110.719 57.1875C110.531 59.8125 110.313 62.2813 110.063 64.5937C109.813 66.8437 109.563 68.7813 109.313 70.4063C109.063 72.0313 108.844 73.3125 108.656 74.25C108.469 75.25 108.281 75.75 108.094 75.75C107.594 75.875 107.031 75.6563 106.406 75.0937C105.844 74.5937 105.281 73.9687 104.719 73.2187C104.156 72.4687 103.656 71.6875 103.219 70.875C102.781 70 102.531 69.25 102.469 68.625C102.406 67.375 102.344 66.0625 102.281 64.6875C102.281 63.25 102.25 61.9375 102.188 60.75C102.125 59.375 102.094 58 102.094 56.625C100.906 56.5 99.75 56.4063 98.625 56.3437C97.5 56.2187 96.375 56.0937 95.25 55.9687C94.6875 55.8437 94.125 55.7813 93.5625 55.7813C93 55.7187 92.4688 55.625 91.9688 55.5C91.8438 58.375 91.7188 61.0313 91.5938 63.4687C91.4688 65.9063 91.3125 68.0313 91.125 69.8437C91 71.6563 90.8438 73.0625 90.6563 74.0625C90.5313 75.125 90.375 75.6875 90.1875 75.75C89.6875 75.8125 89.0938 75.5937 88.4063 75.0937C87.7188 74.5937 87.0625 73.9687 86.4375 73.2187C85.875 72.4687 85.3438 71.6875 84.8438 70.875C84.4063 70.0625 84.1563 69.3437 84.0938 68.7187C83.9688 67.0937 83.8438 65.4375 83.7188 63.75C83.5938 62 83.4688 60.4063 83.3438 58.9687C83.2188 57.2813 83.0938 55.625 82.9688 54C82.4688 53.9375 81.9688 53.8437 81.4688 53.7187C81.0313 53.5937 80.5625 53.5 80.0625 53.4375C79.625 53.375 79.2188 53.2813 78.8438 53.1563C78.5938 53.0313 78.25 52.7813 77.8125 52.4063C77.375 51.9687 76.9375 51.5 76.5 51C76.0625 50.5 75.6875 50.0313 75.375 49.5937C75.0625 49.0937 74.9063 48.7187 74.9063 48.4687C74.9063 48.3437 75.5938 48.1875 76.9688 48C78.4063 47.8125 80.2813 47.6563 82.5938 47.5313C82.3438 43.9063 82.0938 40.2187 81.8438 36.4687C81.6563 32.6563 81.5 29.125 81.375 25.875C81.25 22.5625 81.1875 19.6875 81.1875 17.25C81.1875 14.75 81.2813 13.0313 81.4688 12.0937C81.7188 10.7813 82.3125 9.53125 83.25 8.34375C84.25 7.09375 85.3125 6 86.4375 5.0625C87.5625 4.125 88.625 3.40625 89.625 2.90625C90.625 2.40625 91.2813 2.25 91.5938 2.4375C91.7813 2.625 91.9375 3.375 92.0625 4.6875C92.25 6 92.375 7.75 92.4375 9.9375C92.5625 12.125 92.625 14.6563 92.625 17.5313C92.625 20.4063 92.625 23.4687 92.625 26.7187C92.625 29.9063 92.5625 33.25 92.4375 36.75C92.375 40.1875 92.3125 43.5937 92.25 46.9687C93.875 46.8437 95.4688 46.75 97.0313 46.6875C98.6563 46.625 100.25 46.5313 101.813 46.4063C101.75 42.8437 101.688 39.2187 101.625 35.5313C101.625 31.8437 101.625 28.4063 101.625 25.2187C101.625 22.0313 101.688 19.25 101.813 16.875C101.938 14.5 102.094 12.8437 102.281 11.9063C102.594 10.5937 103.25 9.34375 104.25 8.15625C105.313 6.96875 106.406 5.9375 107.531 5.0625C108.719 4.125 109.813 3.4375 110.813 3C111.875 2.5625 112.563 2.46875 112.875 2.71875C113.188 2.90625 113.375 4.375 113.438 7.125C113.5 9.8125 113.438 13.2187 113.25 17.3437C113.125 21.4687 112.906 26.0937 112.594 31.2187C112.344 36.2813 112.031 41.2813 111.656 46.2187C114.156 46.2187 115.531 46.2813 115.781 46.4063ZM144.938 14.25C143.875 14.3125 142.813 14.3437 141.75 14.3437C140.75 14.2813 139.813 14.25 138.938 14.25C137.938 14.25 137 14.2187 136.125 14.1563C136.25 17.4687 136.281 21.3437 136.219 25.7813C136.219 30.1563 136.156 34.6563 136.031 39.2813C135.969 43.9063 135.844 48.4375 135.656 52.875C135.531 57.25 135.375 61.125 135.188 64.5C137.563 64.4375 139.656 64.4375 141.469 64.5C143.281 64.5625 144.25 64.6563 144.375 64.7813C144.5 64.9687 144.5 65.5937 144.375 66.6563C144.25 67.6563 144.063 68.7813 143.813 70.0313C143.563 71.2187 143.313 72.3125 143.063 73.3125C142.813 74.375 142.625 75.0313 142.5 75.2813C140.75 75.3437 139.125 75.3437 137.625 75.2813C136.188 75.2813 134.938 75.2187 133.875 75.0937C132.625 75.0313 131.5 74.9375 130.5 74.8125C129.5 74.625 128.438 74.4063 127.313 74.1563C126.375 73.9063 125.281 73.5937 124.031 73.2187C122.844 72.8437 121.625 72.375 120.375 71.8125C120.125 71.6875 119.813 71.3437 119.438 70.7813C119.125 70.2187 118.781 69.625 118.406 69C118.094 68.3125 117.844 67.6563 117.656 67.0313C117.406 66.4063 117.281 65.9687 117.281 65.7187C117.281 65.6563 117.563 65.5937 118.125 65.5313C118.688 65.4063 119.469 65.3125 120.469 65.25C121.469 65.125 122.594 65.0313 123.844 64.9687C125.094 64.8437 126.438 64.75 127.875 64.6875C127.75 62.875 127.563 60.5 127.313 57.5625C127.125 54.5625 126.906 51.3437 126.656 47.9063C126.469 44.4063 126.25 40.8437 126 37.2187C125.813 33.5313 125.656 30.125 125.531 27C125.406 23.8125 125.344 21.0313 125.344 18.6563C125.344 16.2813 125.438 14.625 125.625 13.6875C125.688 13.5625 125.719 13.4687 125.719 13.4063C125.719 13.2813 125.75 13.1563 125.813 13.0313L123.188 12.375C122.438 12.1875 121.625 11.9687 120.75 11.7187C119.875 11.4688 119 11.1875 118.125 10.875C117.875 10.75 117.563 10.4063 117.188 9.8437C116.75 9.28125 116.344 8.65625 115.969 7.96875C115.531 7.28125 115.188 6.65625 114.938 6.09375C114.625 5.46875 114.469 5.03125 114.469 4.78125C114.469 4.65625 115.281 4.53125 116.906 4.40625C118.469 4.21875 120.438 4.0625 122.813 3.9375C125.188 3.8125 127.75 3.71875 130.5 3.65625C133.313 3.59375 135.906 3.5625 138.281 3.5625C140.719 3.5625 142.75 3.59375 144.375 3.65625C146.063 3.65625 146.969 3.71875 147.094 3.84375C147.281 4.03125 147.281 4.65625 147.094 5.71875C146.969 6.71875 146.75 7.84375 146.438 9.09375C146.188 10.2812 145.906 11.4062 145.594 12.4687C145.344 13.4687 145.125 14.0625 144.938 14.25ZM176.719 18.8437C176.469 19.1563 174.938 19.1875 172.125 18.9375C169.313 18.6875 164.875 18.2813 158.813 17.7187C158.813 19.7813 158.813 22.3125 158.813 25.3125C158.875 28.3125 158.875 31.5313 158.813 34.9687C163.5 35.4063 167.156 35.8125 169.781 36.1875C172.406 36.5625 173.781 36.8125 173.906 36.9375C174.156 37.1875 174.25 37.7187 174.188 38.5313C174.125 39.2813 173.969 40.125 173.719 41.0625C173.469 42 173.156 42.9063 172.781 43.7813C172.406 44.5937 172.031 45.125 171.656 45.375C171.344 45.5 170.094 45.6875 167.906 45.9375C165.781 46.125 162.75 46.3125 158.813 46.5C158.813 49.1875 158.781 51.8437 158.719 54.4687C158.719 57.0937 158.688 59.5 158.625 61.6875C164.688 61.75 169.094 61.875 171.844 62.0625C174.656 62.1875 176.188 62.375 176.438 62.625C176.688 62.9375 176.688 63.5313 176.438 64.4063C176.25 65.2813 175.906 66.2187 175.406 67.2187C174.969 68.1563 174.469 69.0937 173.906 70.0313C173.406 70.9687 173 71.625 172.688 72C172.563 72.125 171.813 72.1875 170.438 72.1875C169.063 72.125 167.531 72.0313 165.844 71.9063C164.156 71.7813 162.531 71.6563 160.969 71.5313C159.406 71.3437 158.375 71.1875 157.875 71.0625C156.938 70.75 155.938 70.25 154.875 69.5625C153.813 68.8125 152.969 67.875 152.344 66.75C152.219 66.4375 152 65.4063 151.688 63.6563C151.438 61.8437 151.156 59.5625 150.844 56.8125C150.531 54.0625 150.219 50.9687 149.906 47.5313C149.594 44.0937 149.281 40.5937 148.969 37.0313C148.656 33.4687 148.375 29.9687 148.125 26.5313C147.875 23.0937 147.656 20 147.469 17.25C147.344 14.4375 147.281 12.125 147.281 10.3125C147.281 8.4375 147.375 7.3125 147.563 6.9375C147.75 6.4375 148.625 6.0625 150.188 5.8125C151.75 5.5625 153.625 5.40625 155.813 5.34375C158 5.21875 160.344 5.1875 162.844 5.25C165.406 5.3125 167.781 5.4375 169.969 5.625C172.156 5.75 174 5.9375 175.5 6.1875C177 6.375 177.844 6.5625 178.031 6.75C178.281 7.0625 178.406 7.78125 178.406 8.90625C178.469 10.0313 178.406 11.2813 178.219 12.6563C178.094 13.9687 177.875 15.25 177.563 16.5C177.313 17.6875 177.031 18.4687 176.719 18.8437ZM190.5 63.5625C189.313 59.5 188.031 54.7187 186.656 49.2187C185.469 44.5313 184.094 38.8125 182.531 32.0625C180.969 25.3125 179.313 17.5625 177.563 8.8125C177.563 8.1875 177.906 7.46875 178.594 6.65625C179.281 5.78125 180.094 4.96875 181.031 4.21875C182.031 3.46875 183.063 2.8125 184.125 2.25C185.188 1.6875 186.094 1.40625 186.844 1.40625C187.281 1.90625 187.875 4.03125 188.625 7.78125C188.938 9.40625 189.313 11.4375 189.75 13.875C190.25 16.3125 190.781 19.3437 191.344 22.9687C191.906 26.5313 192.531 30.7187 193.219 35.5313C193.906 40.3437 194.688 45.9375 195.563 52.3125C196.188 48 196.813 43.9375 197.438 40.125C198.063 36.25 198.625 32.8125 199.125 29.8125C199.75 26.375 200.313 23.1875 200.813 20.25C201.063 18.4375 201.344 16.5313 201.656 14.5313C202.031 12.4687 202.406 10.5937 202.781 8.90625C203.156 7.21875 203.531 5.8125 203.906 4.6875C204.344 3.5625 204.813 3 205.313 3C205.75 2.9375 206.469 3 207.469 3.1875C208.531 3.375 209.563 3.65625 210.563 4.03125C211.563 4.34375 212.438 4.71875 213.188 5.15625C214 5.59375 214.406 6.03125 214.406 6.46875C214.406 6.71875 214.156 7.90625 213.656 10.0313C213.219 12.1563 212.563 14.875 211.688 18.1875C210.875 21.4375 209.938 25.125 208.875 29.25C207.875 33.375 206.781 37.5937 205.594 41.9063C204.469 46.1563 203.344 50.3125 202.219 54.375C201.094 58.4375 200.063 62.0625 199.125 65.25C198.188 68.375 197.375 70.9063 196.688 72.8437C196.063 74.7813 195.625 75.75 195.375 75.75C195.125 75.75 194.469 74.6563 193.406 72.4687C192.344 70.2187 191.375 67.25 190.5 63.5625ZM238.594 14.25C237.531 14.3125 236.469 14.3437 235.406 14.3437C234.406 14.2813 233.469 14.25 232.594 14.25C231.594 14.25 230.656 14.2187 229.781 14.1563C229.906 17.4687 229.938 21.3437 229.875 25.7813C229.875 30.1563 229.813 34.6563 229.688 39.2813C229.625 43.9063 229.5 48.4375 229.313 52.875C229.188 57.25 229.031 61.125 228.844 64.5C231.219 64.4375 233.313 64.4375 235.125 64.5C236.938 64.5625 237.906 64.6563 238.031 64.7813C238.156 64.9687 238.156 65.5937 238.031 66.6563C237.906 67.6563 237.719 68.7813 237.469 70.0313C237.219 71.2187 236.969 72.3125 236.719 73.3125C236.469 74.375 236.281 75.0313 236.156 75.2813C234.406 75.3437 232.781 75.3437 231.281 75.2813C229.844 75.2813 228.594 75.2187 227.531 75.0937C226.281 75.0313 225.156 74.9375 224.156 74.8125C223.156 74.625 222.094 74.4063 220.969 74.1563C220.031 73.9063 218.938 73.5937 217.688 73.2187C216.5 72.8437 215.281 72.375 214.031 71.8125C213.781 71.6875 213.469 71.3437 213.094 70.7813C212.781 70.2187 212.438 69.625 212.063 69C211.75 68.3125 211.5 67.6563 211.313 67.0313C211.063 66.4063 210.938 65.9687 210.938 65.7187C210.938 65.6563 211.219 65.5937 211.781 65.5313C212.344 65.4063 213.125 65.3125 214.125 65.25C215.125 65.125 216.25 65.0313 217.5 64.9687C218.75 64.8437 220.094 64.75 221.531 64.6875C221.406 62.875 221.219 60.5 220.969 57.5625C220.781 54.5625 220.563 51.3437 220.313 47.9063C220.125 44.4063 219.906 40.8437 219.656 37.2187C219.469 33.5313 219.313 30.125 219.188 27C219.063 23.8125 219 21.0313 219 18.6563C219 16.2813 219.094 14.625 219.281 13.6875C219.344 13.5625 219.375 13.4687 219.375 13.4063C219.375 13.2813 219.406 13.1563 219.469 13.0313L216.844 12.375C216.094 12.1875 215.281 11.9687 214.406 11.7187C213.531 11.4688 212.656 11.1875 211.781 10.875C211.531 10.75 211.219 10.4063 210.844 9.8437C210.406 9.28125 210 8.65625 209.625 7.96875C209.188 7.28125 208.844 6.65625 208.594 6.09375C208.281 5.46875 208.125 5.03125 208.125 4.78125C208.125 4.65625 208.938 4.53125 210.563 4.40625C212.125 4.21875 214.094 4.0625 216.469 3.9375C218.844 3.8125 221.406 3.71875 224.156 3.65625C226.969 3.59375 229.563 3.5625 231.938 3.5625C234.375 3.5625 236.406 3.59375 238.031 3.65625C239.719 3.65625 240.625 3.71875 240.75 3.84375C240.938 4.03125 240.938 4.65625 240.75 5.71875C240.625 6.71875 240.406 7.84375 240.094 9.09375C239.844 10.2812 239.563 11.4062 239.25 12.4687C239 13.4687 238.781 14.0625 238.594 14.25ZM276.844 6.84375C276.969 7.09375 277.031 7.96875 277.031 9.46875C277.094 10.9687 277.094 12.7813 277.031 14.9063C277.031 17.0313 276.969 19.3125 276.844 21.75C276.719 24.125 276.563 26.375 276.375 28.5C276 33.25 275.563 37.9375 275.063 42.5625C274.563 47.1875 274.063 51.3437 273.563 55.0313C273.125 58.7187 272.688 61.75 272.25 64.125C271.875 66.4375 271.656 67.7187 271.594 67.9687C271.469 68.2813 271.188 68.75 270.75 69.375C270.313 70 269.844 70.625 269.344 71.25C268.844 71.8125 268.344 72.3125 267.844 72.75C267.406 73.1875 267.063 73.4063 266.813 73.4063C266.313 72.9687 265.406 71.25 264.094 68.25C263.531 66.9375 262.844 65.3125 262.031 63.375C261.219 61.375 260.281 58.9375 259.219 56.0625C258.156 53.1875 256.906 49.8125 255.469 45.9375C254.094 42 252.531 37.4375 250.781 32.25C251.156 37.375 251.469 41.875 251.719 45.75C251.969 49.625 252.156 53 252.281 55.875C252.469 58.75 252.594 61.1875 252.656 63.1875C252.719 65.125 252.75 66.75 252.75 68.0625C252.75 71.0625 252.656 72.7813 252.469 73.2187C251.844 73.2187 251.156 72.9375 250.406 72.375C249.719 71.75 249.063 71.0313 248.438 70.2187C247.813 69.3437 247.25 68.5 246.75 67.6875C246.313 66.875 246.063 66.2813 246 65.9063C245.938 65.6563 245.75 64.5 245.438 62.4375C245.125 60.375 244.75 57.75 244.313 54.5625C243.938 51.3125 243.5 47.6875 243 43.6875C242.563 39.625 242.125 35.5 241.688 31.3125C241.313 27.125 241 23.0625 240.75 19.125C240.5 15.125 240.375 11.5625 240.375 8.4375C240.375 7.9375 241 7.28125 242.25 6.46875C243.5 5.59375 244.906 4.78125 246.469 4.03125C248.094 3.21875 249.594 2.53125 250.969 1.96875C252.344 1.34375 253.188 1.03125 253.5 1.03125C253.75 1.03125 254 1.75 254.25 3.1875C254.563 4.625 254.875 6.4375 255.188 8.625C255.563 10.8125 255.969 13.25 256.406 15.9375C256.906 18.625 257.438 21.1875 258 23.625C258.5 26.25 259.125 29.2187 259.875 32.5313C260.5 35.3437 261.281 38.7187 262.219 42.6563C263.219 46.5937 264.375 50.9687 265.688 55.7813C265.688 52.4063 265.688 48.8125 265.688 45C265.75 41.1875 265.813 37.4063 265.875 33.6563C265.938 29.9063 266 26.3125 266.063 22.875C266.188 19.375 266.281 16.2813 266.344 13.5937C266.469 10.9063 266.563 8.75 266.625 7.125C266.75 5.5 266.844 4.625 266.906 4.5C267.094 4.25 267.688 4.1875 268.688 4.3125C269.688 4.375 270.781 4.5625 271.969 4.875C273.156 5.125 274.219 5.46875 275.156 5.90625C276.156 6.28125 276.719 6.59375 276.844 6.84375ZM313.688 43.5C314.063 43.8125 314.344 44.4687 314.531 45.4687C314.719 46.4687 314.813 47.5625 314.813 48.75C314.813 49.9375 314.719 51.0313 314.531 52.0313C314.344 53.0313 314.063 53.625 313.688 53.8125C313.5 53.9375 313.031 53.9687 312.281 53.9063C311.594 53.8437 310.781 53.7187 309.844 53.5313C309.969 54.5937 310.063 55.6563 310.125 56.7187C310.188 57.7813 310.219 58.6563 310.219 59.3437C310.219 60.5313 309.969 62.0625 309.469 63.9375C309.031 65.8125 308.438 67.6563 307.688 69.4687C306.938 71.2187 306.125 72.7187 305.25 73.9687C304.438 75.2187 303.656 75.8125 302.906 75.75C302.406 75.75 301.688 75.5313 300.75 75.0937C299.875 74.7187 298.875 74.2187 297.75 73.5937C296.625 73.0313 295.438 72.375 294.188 71.625C293 70.875 291.906 70.1563 290.906 69.4687C289.906 68.7187 289.031 68.0313 288.281 67.4063C287.594 66.7813 287.156 66.2813 286.969 65.9063C286.656 65.3437 286.25 64 285.75 61.875C285.25 59.75 284.75 57.1563 284.25 54.0937C283.75 50.9687 283.313 47.5625 282.938 43.875C282.563 40.125 282.375 36.375 282.375 32.625C282.375 28.875 282.438 25.1875 282.563 21.5625C282.688 17.9375 282.906 14.6875 283.219 11.8125C283.594 8.875 284.063 6.53125 284.625 4.78125C285.25 2.96875 286 2 286.875 1.875C289.5 1.625 292.313 2 295.313 3C298.375 4 301.219 5.28125 303.844 6.84375C306.469 8.40625 308.656 10.0313 310.406 11.7187C312.156 13.4063 313.094 14.7813 313.219 15.8437C313.281 16.9063 313.156 18.0937 312.844 19.4063C312.531 20.6563 312.156 21.9063 311.719 23.1563C311.281 24.3437 310.813 25.4375 310.313 26.4375C309.875 27.375 309.531 28.0313 309.281 28.4063C308.969 28.8437 308.563 29.3125 308.063 29.8125C307.625 30.3125 307.156 30.75 306.656 31.125C306.219 31.5 305.75 31.7813 305.25 31.9687C304.813 32.0937 304.406 32.0313 304.031 31.7813C303.781 31.5937 303.531 31 303.281 30C303.094 29 302.875 27.8125 302.625 26.4375C302.438 25 302.25 23.5 302.063 21.9375C301.875 20.3125 301.688 18.8125 301.5 17.4375C301.375 16.0625 301.25 14.9063 301.125 13.9687C301 13.0313 300.906 12.5 300.844 12.375C300.719 12.1875 300.5 12 300.188 11.8125C299.938 11.625 299.625 11.4688 299.25 11.3437C298.875 11.2187 298.531 11.1875 298.219 11.25C297.906 11.25 297.656 11.4062 297.469 11.7187C297.281 12.0313 296.938 13.1875 296.438 15.1875C295.938 17.1875 295.438 19.6875 294.938 22.6875C294.5 25.6875 294.094 29.0313 293.719 32.7187C293.344 36.3437 293.156 40 293.156 43.6875C293.156 46.3125 293.219 49.0625 293.344 51.9375C293.531 54.75 293.75 57.3437 294 59.7187C294.313 62.0313 294.656 63.9687 295.031 65.5313C295.469 67.0937 295.906 67.875 296.344 67.875C296.781 67.9375 297.375 67.5 298.125 66.5625C298.875 65.5625 299.594 64.4375 300.281 63.1875C300.969 61.875 301.594 60.625 302.156 59.4375C302.781 58.1875 303.188 57.3125 303.375 56.8125C303.688 56.125 304 55.4375 304.313 54.75C304.688 54 305.094 53.2813 305.531 52.5937C304.531 52.3437 303.531 52.0625 302.531 51.75C301.594 51.4375 300.719 51.1563 299.906 50.9063C299.094 50.5937 298.406 50.3125 297.844 50.0625C297.344 49.75 297.031 49.5 296.906 49.3125C296.719 49 296.594 48.5937 296.531 48.0937C296.469 47.5313 296.438 47 296.438 46.5C296.5 45.9375 296.563 45.4375 296.625 45C296.75 44.5 296.844 44.0937 296.906 43.7813C297.031 43.3437 297.875 43.0313 299.438 42.8437C301.063 42.6563 302.844 42.5625 304.781 42.5625C306.781 42.5625 308.656 42.6563 310.406 42.8437C312.156 42.9687 313.25 43.1875 313.688 43.5ZM371.438 6.84375C371.563 7.09375 371.625 7.96875 371.625 9.46875C371.688 10.9687 371.688 12.7813 371.625 14.9063C371.625 17.0313 371.563 19.3125 371.438 21.75C371.313 24.125 371.156 26.375 370.969 28.5C370.594 33.25 370.156 37.9375 369.656 42.5625C369.156 47.1875 368.656 51.3437 368.156 55.0313C367.719 58.7187 367.281 61.75 366.844 64.125C366.469 66.4375 366.25 67.7187 366.188 67.9687C366.063 68.2813 365.781 68.75 365.344 69.375C364.906 70 364.438 70.625 363.938 71.25C363.438 71.8125 362.938 72.3125 362.438 72.75C362 73.1875 361.656 73.4063 361.406 73.4063C360.906 72.9687 360 71.25 358.688 68.25C358.125 66.9375 357.438 65.3125 356.625 63.375C355.813 61.375 354.875 58.9375 353.813 56.0625C352.75 53.1875 351.5 49.8125 350.063 45.9375C348.688 42 347.125 37.4375 345.375 32.25C345.75 37.375 346.063 41.875 346.313 45.75C346.563 49.625 346.75 53 346.875 55.875C347.063 58.75 347.188 61.1875 347.25 63.1875C347.313 65.125 347.344 66.75 347.344 68.0625C347.344 71.0625 347.25 72.7813 347.063 73.2187C346.438 73.2187 345.75 72.9375 345 72.375C344.313 71.75 343.656 71.0313 343.031 70.2187C342.406 69.3437 341.844 68.5 341.344 67.6875C340.906 66.875 340.656 66.2813 340.594 65.9063C340.531 65.6563 340.344 64.5 340.031 62.4375C339.719 60.375 339.344 57.75 338.906 54.5625C338.531 51.3125 338.094 47.6875 337.594 43.6875C337.156 39.625 336.719 35.5 336.281 31.3125C335.906 27.125 335.594 23.0625 335.344 19.125C335.094 15.125 334.969 11.5625 334.969 8.4375C334.969 7.9375 335.594 7.28125 336.844 6.46875C338.094 5.59375 339.5 4.78125 341.063 4.03125C342.688 3.21875 344.188 2.53125 345.563 1.96875C346.938 1.34375 347.781 1.03125 348.094 1.03125C348.344 1.03125 348.594 1.75 348.844 3.1875C349.156 4.625 349.469 6.4375 349.781 8.625C350.156 10.8125 350.563 13.25 351 15.9375C351.5 18.625 352.031 21.1875 352.594 23.625C353.094 26.25 353.719 29.2187 354.469 32.5313C355.094 35.3437 355.875 38.7187 356.813 42.6563C357.813 46.5937 358.969 50.9687 360.281 55.7813C360.281 52.4063 360.281 48.8125 360.281 45C360.344 41.1875 360.406 37.4063 360.469 33.6563C360.531 29.9063 360.594 26.3125 360.656 22.875C360.781 19.375 360.875 16.2813 360.938 13.5937C361.063 10.9063 361.156 8.75 361.219 7.125C361.344 5.5 361.438 4.625 361.5 4.5C361.688 4.25 362.281 4.1875 363.281 4.3125C364.281 4.375 365.375 4.5625 366.563 4.875C367.75 5.125 368.813 5.46875 369.75 5.90625C370.75 6.28125 371.313 6.59375 371.438 6.84375ZM405 18.8437C404.75 19.1563 403.219 19.1875 400.406 18.9375C397.594 18.6875 393.156 18.2813 387.094 17.7187C387.094 19.7813 387.094 22.3125 387.094 25.3125C387.156 28.3125 387.156 31.5313 387.094 34.9687C391.781 35.4063 395.438 35.8125 398.063 36.1875C400.688 36.5625 402.063 36.8125 402.188 36.9375C402.438 37.1875 402.531 37.7187 402.469 38.5313C402.406 39.2813 402.25 40.125 402 41.0625C401.75 42 401.438 42.9063 401.063 43.7813C400.688 44.5937 400.313 45.125 399.938 45.375C399.625 45.5 398.375 45.6875 396.188 45.9375C394.063 46.125 391.031 46.3125 387.094 46.5C387.094 49.1875 387.063 51.8437 387 54.4687C387 57.0937 386.969 59.5 386.906 61.6875C392.969 61.75 397.375 61.875 400.125 62.0625C402.938 62.1875 404.469 62.375 404.719 62.625C404.969 62.9375 404.969 63.5313 404.719 64.4063C404.531 65.2813 404.188 66.2187 403.688 67.2187C403.25 68.1563 402.75 69.0937 402.188 70.0313C401.688 70.9687 401.281 71.625 400.969 72C400.844 72.125 400.094 72.1875 398.719 72.1875C397.344 72.125 395.813 72.0313 394.125 71.9063C392.438 71.7813 390.813 71.6563 389.25 71.5313C387.688 71.3437 386.656 71.1875 386.156 71.0625C385.219 70.75 384.219 70.25 383.156 69.5625C382.094 68.8125 381.25 67.875 380.625 66.75C380.5 66.4375 380.281 65.4063 379.969 63.6563C379.719 61.8437 379.438 59.5625 379.125 56.8125C378.813 54.0625 378.5 50.9687 378.188 47.5313C377.875 44.0937 377.563 40.5937 377.25 37.0313C376.938 33.4687 376.656 29.9687 376.406 26.5313C376.156 23.0937 375.938 20 375.75 17.25C375.625 14.4375 375.563 12.125 375.563 10.3125C375.563 8.4375 375.656 7.3125 375.844 6.9375C376.031 6.4375 376.906 6.0625 378.469 5.8125C380.031 5.5625 381.906 5.40625 384.094 5.34375C386.281 5.21875 388.625 5.1875 391.125 5.25C393.688 5.3125 396.063 5.4375 398.25 5.625C400.438 5.75 402.281 5.9375 403.781 6.1875C405.281 6.375 406.125 6.5625 406.313 6.75C406.563 7.0625 406.688 7.78125 406.688 8.90625C406.75 10.0313 406.688 11.2813 406.5 12.6563C406.375 13.9687 406.156 15.25 405.844 16.5C405.594 17.6875 405.313 18.4687 405 18.8437ZM448.219 2.625C448.469 2.875 448.531 4.125 448.406 6.375C448.344 8.5625 448.125 11.375 447.75 14.8125C447.375 18.25 446.906 22.1563 446.344 26.5313C445.844 30.9063 445.281 35.3437 444.656 39.8437C444.031 44.3437 443.375 48.75 442.688 53.0625C442.063 57.3125 441.438 61.125 440.813 64.5C440.25 67.8125 439.719 70.5 439.219 72.5625C438.781 74.5625 438.438 75.5625 438.188 75.5625C437.75 75.5625 437.25 75.3125 436.688 74.8125C436.125 74.3125 435.563 73.6875 435 72.9375C434.5 72.25 434.031 71.5625 433.594 70.875C433.219 70.125 433 69.5313 432.938 69.0937C432.75 68.2813 432.375 66.7187 431.813 64.4063C431.313 62.0937 430.813 59.2187 430.313 55.7813C430 53.5313 429.688 51.1563 429.375 48.6563C429.063 46.5313 428.719 44.2187 428.344 41.7187C428.031 39.1563 427.719 36.5937 427.406 34.0313C427.156 35.6563 426.844 37.5937 426.469 39.8437C426.094 42.0937 425.719 44.25 425.344 46.3125C424.906 48.75 424.438 51.2187 423.938 53.7187C423.5 56.3437 423.031 58.9375 422.531 61.5C422.031 64 421.531 66.2813 421.031 68.3437C420.531 70.3437 420.063 71.9687 419.625 73.2187C419.25 74.4687 418.938 75.125 418.688 75.1875C418.25 75.3125 417.719 75.1563 417.094 74.7187C416.469 74.3437 415.844 73.8125 415.219 73.125C414.594 72.4375 414.031 71.7187 413.531 70.9687C413.094 70.1563 412.813 69.4687 412.688 68.9063C411.813 62.7813 411.063 57.2813 410.438 52.4063C409.875 47.5313 409.375 43.2187 408.938 39.4687C408.5 35.6563 408.156 32.375 407.906 29.625C407.656 26.875 407.438 24.5 407.25 22.5C406.875 17.875 406.719 14.6563 406.781 12.8437C406.969 11.5313 407.469 10.2187 408.281 8.90625C409.094 7.53125 410 6.3125 411 5.25C412 4.1875 412.938 3.375 413.813 2.8125C414.75 2.1875 415.375 1.96875 415.688 2.15625C415.875 2.28125 416.063 3.125 416.25 4.6875C416.438 6.1875 416.594 8.1875 416.719 10.6875C416.844 13.125 416.969 15.9375 417.094 19.125C417.219 22.3125 417.313 25.6563 417.375 29.1563C417.5 32.5937 417.594 36.0625 417.656 39.5625C417.781 43.0625 417.906 46.3437 418.031 49.4063C418.281 47.8437 418.531 46.0625 418.781 44.0625C419.094 42.0625 419.406 39.9687 419.719 37.7813C420.094 35.5937 420.438 33.4375 420.75 31.3125C421.063 29.125 421.344 27.125 421.594 25.3125C421.906 23.5 422.188 21.9375 422.438 20.625C422.75 19.3125 423 18.4063 423.188 17.9063C423.813 16.4687 424.531 15.2187 425.344 14.1563C426.219 13.0937 427.031 12.2187 427.781 11.5313C428.594 10.8437 429.313 10.3438 429.938 10.0313C430.625 9.6563 431.094 9.5 431.344 9.5625C431.406 9.5625 431.531 10.2187 431.719 11.5313C431.906 12.7813 432.094 14.4375 432.281 16.5C432.531 18.5625 432.781 20.9375 433.031 23.625C433.344 26.25 433.656 29 433.969 31.875C434.281 34.6875 434.594 37.5 434.906 40.3125C435.219 43.0625 435.563 45.5625 435.938 47.8125C436.063 45.75 436.188 43.4687 436.313 40.9687C436.438 38.4063 436.563 35.8125 436.688 33.1875C436.875 30.5625 437.031 28 437.156 25.5C437.344 23 437.5 20.7187 437.625 18.6563C437.813 16.5937 437.969 14.8437 438.094 13.4063C438.281 11.9063 438.469 10.9063 438.656 10.4063C439.031 9.15625 439.688 8 440.625 6.9375C441.563 5.8125 442.531 4.90625 443.531 4.21875C444.594 3.46875 445.563 2.96875 446.438 2.71875C447.375 2.40625 447.969 2.375 448.219 2.625ZM176.016 119.624C176.266 119.874 176.328 121.124 176.203 123.374C176.141 125.562 175.922 128.375 175.547 131.812C175.172 135.25 174.703 139.156 174.141 143.531C173.641 147.906 173.078 152.344 172.453 156.844C171.828 161.344 171.172 165.751 170.484 170.062C169.86 174.312 169.234 178.125 168.61 181.501C168.047 184.813 167.516 187.5 167.016 189.562C166.578 191.562 166.234 192.562 165.984 192.562C165.547 192.562 165.047 192.312 164.484 191.812C163.922 191.312 163.36 190.688 162.797 189.938C162.297 189.251 161.828 188.562 161.391 187.874C161.016 187.124 160.797 186.532 160.734 186.094C160.547 185.282 160.172 183.718 159.61 181.406C159.11 179.093 158.61 176.218 158.11 172.781C157.797 170.531 157.484 168.156 157.172 165.656C156.86 163.531 156.516 161.219 156.141 158.719C155.828 156.157 155.516 153.593 155.203 151.031C154.953 152.656 154.641 154.594 154.266 156.844C153.891 159.094 153.516 161.25 153.141 163.312C152.703 165.75 152.234 168.219 151.734 170.719C151.297 173.344 150.828 175.938 150.328 178.501C149.828 181.001 149.328 183.282 148.828 185.344C148.328 187.344 147.86 188.969 147.422 190.219C147.047 191.469 146.734 192.124 146.484 192.188C146.047 192.312 145.516 192.157 144.891 191.719C144.266 191.344 143.641 190.812 143.016 190.124C142.391 189.437 141.828 188.719 141.328 187.969C140.891 187.157 140.61 186.468 140.484 185.906C139.61 179.781 138.86 174.281 138.234 169.406C137.672 164.531 137.172 160.219 136.734 156.469C136.297 152.657 135.953 149.374 135.703 146.624C135.453 143.874 135.234 141.501 135.047 139.501C134.672 134.875 134.516 131.657 134.578 129.844C134.766 128.532 135.266 127.219 136.078 125.907C136.891 124.532 137.797 123.313 138.797 122.251C139.797 121.188 140.734 120.374 141.61 119.812C142.547 119.188 143.172 118.969 143.484 119.157C143.672 119.282 143.86 120.125 144.047 121.688C144.234 123.188 144.391 125.188 144.516 127.688C144.641 130.125 144.766 132.937 144.891 136.124C145.016 139.312 145.11 142.656 145.172 146.156C145.297 149.593 145.391 153.062 145.453 156.562C145.578 160.062 145.703 163.343 145.828 166.406C146.078 164.843 146.328 163.062 146.578 161.062C146.891 159.062 147.203 156.968 147.516 154.781C147.891 152.593 148.234 150.438 148.547 148.312C148.86 146.125 149.141 144.125 149.391 142.312C149.703 140.5 149.984 138.937 150.234 137.624C150.547 136.312 150.797 135.406 150.984 134.906C151.61 133.468 152.328 132.218 153.141 131.156C154.016 130.093 154.828 129.218 155.578 128.531C156.391 127.843 157.11 127.344 157.734 127.032C158.422 126.657 158.891 126.501 159.141 126.562C159.203 126.562 159.328 127.218 159.516 128.531C159.703 129.781 159.891 131.438 160.078 133.501C160.328 135.563 160.578 137.937 160.828 140.624C161.141 143.25 161.453 146 161.766 148.874C162.078 151.687 162.391 154.5 162.703 157.312C163.016 160.062 163.36 162.562 163.734 164.812C163.86 162.75 163.984 160.469 164.11 157.969C164.234 155.407 164.36 152.812 164.484 150.188C164.672 147.562 164.828 145.001 164.953 142.501C165.141 140.001 165.297 137.718 165.422 135.656C165.61 133.593 165.766 131.843 165.891 130.406C166.078 128.906 166.266 127.907 166.453 127.407C166.828 126.157 167.484 125 168.422 123.938C169.36 122.812 170.328 121.906 171.328 121.218C172.391 120.468 173.36 119.968 174.234 119.718C175.172 119.406 175.766 119.374 176.016 119.624ZM181.078 129.188C181.391 128.624 182.047 127.907 183.047 127.032C184.047 126.094 185.234 125.156 186.61 124.218C188.047 123.281 189.578 122.438 191.203 121.688C192.828 120.874 194.453 120.343 196.078 120.093C197.766 119.781 199.328 119.844 200.766 120.282C202.266 120.657 203.547 121.532 204.61 122.907C205.172 123.594 205.703 124.969 206.203 127.032C206.703 129.094 207.172 131.593 207.61 134.531C208.11 137.406 208.547 140.625 208.922 144.188C209.297 147.688 209.61 151.282 209.86 154.969C210.11 158.594 210.266 162.188 210.328 165.751C210.453 169.251 210.453 172.501 210.328 175.501C210.266 178.438 210.078 180.969 209.766 183.094C209.516 185.157 209.11 186.593 208.547 187.406C207.422 189.031 205.672 190.124 203.297 190.688C200.922 191.251 198.422 191.251 195.797 190.688C193.172 190.188 190.672 189.125 188.297 187.501C185.922 185.875 184.172 183.688 183.047 180.938C182.297 179.125 181.672 176.656 181.172 173.531C180.734 170.406 180.391 167.031 180.141 163.406C179.891 159.718 179.734 155.968 179.672 152.156C179.672 148.343 179.703 144.843 179.766 141.656C179.891 138.406 180.047 135.656 180.234 133.406C180.484 131.156 180.766 129.751 181.078 129.188ZM199.453 176.719C199.828 176.344 200.078 175.344 200.203 173.719C200.391 172.032 200.484 170.062 200.484 167.812C200.547 165.5 200.547 163.063 200.484 160.501C200.484 157.938 200.484 155.562 200.484 153.374C200.484 147.812 200.297 143.5 199.922 140.438C199.547 137.375 199.11 135.094 198.61 133.594C198.047 131.844 197.422 130.75 196.734 130.312C195.797 130.5 195.016 130.813 194.391 131.251C193.766 131.625 193.266 132.062 192.891 132.562C192.453 133.124 192.11 133.719 191.86 134.344C191.672 134.907 191.453 136 191.203 137.624C191.016 139.25 190.828 141.188 190.641 143.438C190.453 145.625 190.266 148.031 190.078 150.656C189.953 153.218 189.828 155.751 189.703 158.251C189.641 160.751 189.578 163.124 189.516 165.374C189.516 167.562 189.547 169.375 189.61 170.812C189.734 173 190.234 174.594 191.11 175.594C192.047 176.594 193.047 177.25 194.11 177.562C195.172 177.812 196.203 177.812 197.203 177.562C198.266 177.312 199.016 177.032 199.453 176.719ZM250.172 130.031C250.484 130.406 250.797 131.469 251.11 133.219C251.422 134.969 251.641 136.875 251.766 138.938C251.953 141 252.016 142.938 251.953 144.751C251.953 146.563 251.797 147.751 251.484 148.312C251.234 148.688 250.61 149.374 249.61 150.374C248.61 151.312 247.453 152.375 246.141 153.562C244.828 154.75 243.453 155.937 242.016 157.124C240.641 158.25 239.422 159.218 238.36 160.031C238.86 161.031 239.484 162.344 240.234 163.969C240.984 165.532 241.797 167.218 242.672 169.031C243.547 170.781 244.391 172.594 245.203 174.469C246.078 176.344 246.86 178.062 247.547 179.624C248.234 181.124 248.797 182.407 249.234 183.469C249.672 184.469 249.891 185.063 249.891 185.251C249.891 185.563 249.734 186.001 249.422 186.562C249.172 187.124 248.828 187.656 248.391 188.156C247.953 188.593 247.484 188.968 246.984 189.281C246.484 189.593 246.016 189.657 245.578 189.469C245.328 189.407 244.86 188.907 244.172 187.969C243.484 186.969 242.641 185.75 241.641 184.312C240.703 182.812 239.641 181.125 238.453 179.251C237.328 177.375 236.172 175.5 234.984 173.624C233.797 171.687 232.672 169.844 231.61 168.094C230.547 166.282 229.61 164.688 228.797 163.312C228.672 169.812 228.516 174.812 228.328 178.312C228.203 181.812 228.11 184.375 228.047 186.001C227.922 187.938 227.797 189.031 227.672 189.281C227.484 189.281 227.078 189.031 226.453 188.531C225.828 187.968 225.172 187.312 224.484 186.562C223.797 185.812 223.141 185.062 222.516 184.312C221.953 183.562 221.61 183 221.484 182.624C221.36 181.812 221.172 179.469 220.922 175.594C220.797 173.907 220.672 171.812 220.547 169.312C220.422 166.812 220.266 163.782 220.078 160.219C219.953 156.657 219.766 152.468 219.516 147.656C219.266 142.843 219.016 137.312 218.766 131.062C217.641 131.001 216.734 131.001 216.047 131.062C215.36 131.062 214.828 131.093 214.453 131.156C214.078 131.218 213.797 131.251 213.61 131.251C213.422 131.188 213.266 131.031 213.141 130.781C212.891 130.281 212.703 129.438 212.578 128.251C212.453 127.001 212.391 125.812 212.391 124.688C212.391 123.438 212.578 122.188 212.953 120.938C213.266 119.688 213.672 118.906 214.172 118.593C214.422 118.406 215.297 118.438 216.797 118.688C218.297 118.875 219.953 119.125 221.766 119.438C223.578 119.75 225.297 120.093 226.922 120.468C228.61 120.843 229.703 121.093 230.203 121.218C230.641 121.343 231.36 121.562 232.36 121.874C233.36 122.124 234.516 122.501 235.828 123.001C237.141 123.438 238.516 123.938 239.953 124.501C241.453 125.063 242.86 125.657 244.172 126.282C245.484 126.907 246.672 127.531 247.734 128.156C248.797 128.781 249.61 129.406 250.172 130.031ZM229.078 156.469C229.641 156.157 230.391 155.562 231.328 154.688C232.266 153.751 233.266 152.719 234.328 151.594C235.453 150.407 236.578 149.188 237.703 147.938C238.828 146.625 239.828 145.406 240.703 144.281C241.641 143.156 242.391 142.187 242.953 141.374C243.516 140.562 243.797 140.031 243.797 139.781C243.797 139.343 243.391 138.843 242.578 138.281C241.828 137.656 240.828 137.031 239.578 136.406C238.328 135.781 236.86 135.187 235.172 134.624C233.484 134 231.766 133.468 230.016 133.031L229.078 156.469ZM257.016 192.469C256.891 192.157 256.828 191.032 256.828 189.094C256.828 187.157 256.828 184.718 256.828 181.781C256.891 178.843 256.953 175.562 257.016 171.938C257.141 168.25 257.234 164.531 257.297 160.781C257.422 156.968 257.547 153.282 257.672 149.719C257.797 146.094 257.891 142.875 257.953 140.062C258.078 137.25 258.172 134.969 258.234 133.219C258.297 131.407 258.36 130.438 258.422 130.312C258.484 130.062 258.766 129.438 259.266 128.438C259.766 127.438 260.328 126.406 260.953 125.343C261.641 124.218 262.328 123.251 263.016 122.438C263.703 121.562 264.297 121.156 264.797 121.218C264.984 121.281 265.141 122.531 265.266 124.968C265.453 127.343 265.61 130.406 265.734 134.156C265.922 137.906 266.047 142.062 266.11 146.624C266.234 151.124 266.328 155.532 266.391 159.844C266.516 164.094 266.61 167.969 266.672 171.469C266.734 174.907 266.797 177.438 266.86 179.062C268.86 179.25 270.86 179.406 272.86 179.531C274.922 179.656 276.766 179.813 278.391 180.001C280.016 180.125 281.328 180.25 282.328 180.374C283.391 180.5 283.953 180.593 284.016 180.656C284.203 180.906 284.453 181.501 284.766 182.438C285.141 183.312 285.484 184.282 285.797 185.344C286.11 186.344 286.328 187.281 286.453 188.156C286.641 189.031 286.61 189.563 286.36 189.751C279.172 191.063 273.61 191.937 269.672 192.374C265.734 192.812 262.828 193.031 260.953 193.031C258.766 193.031 257.453 192.844 257.016 192.469ZM298.36 119.907C299.61 120.157 301.328 120.907 303.516 122.157C305.703 123.344 307.891 124.719 310.078 126.282C312.328 127.782 314.297 129.281 315.984 130.781C317.672 132.218 318.672 133.25 318.984 133.874C319.234 134.5 319.328 135.657 319.266 137.344C319.203 139.032 319.016 141.093 318.703 143.531C318.391 145.906 317.984 148.531 317.484 151.406C316.984 154.281 316.422 157.187 315.797 160.124C315.172 163 314.484 165.812 313.734 168.562C313.047 171.25 312.328 173.625 311.578 175.688C311.266 176.688 310.578 177.782 309.516 178.969C308.453 180.157 307.203 181.343 305.766 182.531C304.328 183.656 302.797 184.719 301.172 185.719C299.61 186.719 298.11 187.563 296.672 188.251C295.297 188.938 294.047 189.406 292.922 189.656C291.86 189.906 291.141 189.844 290.766 189.469C290.391 189.094 289.984 187.906 289.547 185.906C289.172 183.843 288.797 181.282 288.422 178.219C288.047 175.094 287.703 171.625 287.391 167.812C287.078 163.938 286.797 160.001 286.547 156.001C286.297 152.001 286.078 148.093 285.891 144.281C285.766 140.406 285.672 136.937 285.61 133.874C285.61 130.75 285.672 128.156 285.797 126.093C285.922 123.968 286.141 122.688 286.453 122.251C286.703 121.938 287.328 121.625 288.328 121.312C289.391 121 290.547 120.718 291.797 120.468C293.11 120.218 294.391 120.032 295.641 119.907C296.891 119.782 297.797 119.782 298.36 119.907ZM297.797 131.812C297.36 132.125 297.047 133.094 296.86 134.719C296.672 136.282 296.516 138.188 296.391 140.438C296.328 142.625 296.297 144.969 296.297 147.469C296.297 149.969 296.266 152.25 296.203 154.312C296.078 159.688 296.016 163.938 296.016 167.062C296.078 170.125 296.141 172.438 296.203 174.001C296.328 175.501 296.484 176.468 296.672 176.906C296.86 177.281 297.11 177.469 297.422 177.469C297.672 177.469 298.078 177.281 298.641 176.906C299.266 176.531 299.922 176.063 300.61 175.501C301.297 174.938 301.953 174.344 302.578 173.719C303.203 173.032 303.641 172.438 303.891 171.938C304.141 171.438 304.453 170.468 304.828 169.031C305.203 167.531 305.578 165.812 305.953 163.874C306.328 161.874 306.703 159.782 307.078 157.594C307.453 155.344 307.766 153.219 308.016 151.219C308.328 149.157 308.547 147.343 308.672 145.781C308.86 144.156 308.953 143.001 308.953 142.312C308.891 141 308.36 139.656 307.36 138.281C306.36 136.906 305.203 135.687 303.891 134.624C302.641 133.562 301.391 132.751 300.141 132.188C298.953 131.624 298.172 131.5 297.797 131.812ZM330.516 171.374C330.703 171.874 330.797 172.532 330.797 173.344C330.797 174.094 330.703 174.906 330.516 175.781C330.328 176.593 330.078 177.407 329.766 178.219C329.516 178.969 329.234 179.594 328.922 180.094C328.672 180.469 328.328 180.781 327.891 181.031C327.453 181.281 326.984 181.469 326.484 181.594C325.984 181.657 325.516 181.688 325.078 181.688C324.641 181.688 324.297 181.688 324.047 181.688C323.672 181.624 323.266 181.344 322.828 180.844C322.453 180.344 322.11 179.751 321.797 179.062C321.547 178.312 321.36 177.532 321.234 176.719C321.11 175.844 321.141 175.031 321.328 174.281C321.516 173.531 322.047 172.874 322.922 172.312C323.797 171.751 324.734 171.313 325.734 171.001C326.797 170.688 327.797 170.562 328.734 170.624C329.672 170.624 330.266 170.874 330.516 171.374Z" fill="white"/>
</svg>
